<svg xmlns="http://www.w3.org/2000/svg" xmlns:xlink="http://www.w3.org/1999/xlink" width="1013" height="634" viewBox="0 0 1013 634">
  <defs>
    <clipPath id="clip-path">
      <rect id="Rectangle_20630" data-name="Rectangle 20630" width="423" height="634" transform="translate(-0.334)" fill="#fff" stroke="#707070" stroke-width="1"/>
    </clipPath>
    <clipPath id="clip-Large">
      <rect width="1013" height="634"/>
    </clipPath>
  </defs>
  <g id="Large" clip-path="url(#clip-Large)">
    <rect width="1013" height="634" fill="#17827b"/>
    <g id="logo-yard-da" transform="translate(50 60)">
      <path id="Path_1" d="M37.757,55.537l-.95-.7q-.746-1.272-.746-12.607V38.4A13.066,13.066,0,0,1,36.31,35.5c.305-1.266,1.911-4.161,4.839-8.695Q48.934,14.748,55.475,6.432V5.076l-.418-.384H49.018c-.848,1.492-1.526,2.668-2.024,3.516L42.4,15.9q-6.869,11.092-9.317,14.767L27.66,20.543Q21.741,9.451,18.219,6.24a14.36,14.36,0,0,0-3.844-2.51q-2.866.78-12.958,2.634l-.407.43v2.16l.452.43a11.408,11.408,0,0,1,3.1.249A11.034,11.034,0,0,1,7.127,11.7q3.935,3.748,10.56,14.224,6.5,10.295,6.5,11.759v4.557c0,7.553-.249,11.748-.746,12.607l-.95.69a36.584,36.584,0,0,1-5.088.509L17,56.431v2.634l.373.351q3.884-.237,12.754-.237,8.65,0,12.754.237l.407-.4V56.431l-.407-.384a36.57,36.57,0,0,1-5.088-.5" transform="translate(-1.01 -1.582)" fill="#fff"/>
      <path id="Path_2" d="M64.606,47.895a7.666,7.666,0,0,1-6.66,3.629q-4.918,0-4.918-5.258a5.521,5.521,0,0,1,2.374-4.9c1.594-1.063,4.658-2.069,9.215-3v9.509h0Zm44.662-21.223.294-6.874a8.383,8.383,0,0,0-2.94-.464,6.651,6.651,0,0,0-4.636,1.549q-3.646,3.714-6.207,6.49l.09-7.576-.916-.5a75.721,75.721,0,0,1-15.682,3.2l-.407.43V25.1l.407.384c2.069.079,3.268.147,3.6.192a2.225,2.225,0,0,1,1.786.961q.628,1.17.622,8.9v5.529q0,5.766-.283,10.787c-.057,1.006-.362,1.628-.9,1.854a16.136,16.136,0,0,1-4.93.577l-.034.034a9.565,9.565,0,0,1-3.392-.486,2.544,2.544,0,0,1-.972-2.035c-.136-1.074-.215-3.55-.215-7.44q0-1.815.215-7.225c.079-2.171.124-3.743.124-4.715q0-5.987-2.533-8.887-3.477-3.986-11.635-3.98a21.026,21.026,0,0,0-3.765.271q-3.443.611-10.267,5.337l-.2,4.557.283.543,2.114.464.543-.271,1.572-3.6a9.03,9.03,0,0,1,5.088-1.232A9.672,9.672,0,0,1,61.135,26.9q3.477,2.086,3.482,8.231-13.4,2.2-17.842,4.952c-2.736,1.673-4.093,4.523-4.093,8.548a9.92,9.92,0,0,0,2.465,7.146,9.282,9.282,0,0,0,7.055,2.6,15.983,15.983,0,0,0,1.651-.079,5.752,5.752,0,0,0,2.736-.814l8.028-5.721-.373,5.178.373.43q3.222-.187,6.75-.192,4.308,0,7.689.181l.1.09q3.9-.271,11.307-.271,6,0,12.087.237l.407-.4V54.656l-.407-.351c-3.313-.1-5.235-.294-5.755-.577a2.069,2.069,0,0,1-.871-1.854c-.192-3.347-.294-5.97-.294-7.847V34.982a6.283,6.283,0,0,1,1.244-4.217,6.522,6.522,0,0,1,5.133-2.318,6.311,6.311,0,0,1,5.382,2.634l1.741-.5c.079-1.447.136-2.725.17-3.867" transform="translate(4.433 0.453)" fill="#fff"/>
      <path id="Path_3" d="M130.2,39.131q0,8.463-.124,9.011a5.871,5.871,0,0,1-2.691,3.324,9.448,9.448,0,0,1-5.461,1.741,7.825,7.825,0,0,1-5.676-2.047q-4-3.867-4.014-11.872a23.523,23.523,0,0,1,.9-6.807A7.026,7.026,0,0,1,120.5,27a12.9,12.9,0,0,1,3.98.622,14.345,14.345,0,0,1,5.71,4.251v7.27h0Zm15.943,17.7a25.529,25.529,0,0,1-4.138-.5,1.456,1.456,0,0,1-.916-.814q-.543-1.085-.543-11.94V31.092q0-16.655.373-24.977c.113-2.454.17-3.72.17-3.822l-.916-.464A83.129,83.129,0,0,1,124.15,5.041l-.418.43V7.6l.418.43c2.092.079,3.369.158,3.81.237a1.854,1.854,0,0,1,1.7,1.232c.362,1.21.543,5.212.543,11.985v2.171a19.253,19.253,0,0,0-8.028-1.707,14.13,14.13,0,0,0-5.043.769,45.026,45.026,0,0,0-7.248,4.217,27.369,27.369,0,0,0-5.133,3.98Q101.39,35.2,101.39,42.9q0,7.92,4.342,12.912a14.463,14.463,0,0,0,11.42,4.986,11.525,11.525,0,0,0,4.3-.577,37.734,37.734,0,0,0,4.477-3.562c1.854-1.594,3.268-2.781,4.263-3.55q0,4.444-.17,6.343l.373.271c3.539-.181,6.332-.271,8.4-.271q3.273,0,7.327.271l.418-.384V57.244l-.4-.4Z" transform="translate(12.107 -1.83)" fill="#fff"/>
      <path id="Path_4" d="M36.872,69.37A3.746,3.746,0,0,0,35.843,66.5a4.212,4.212,0,0,0-3.008-.961h-1.73v7.79h1.56c2.8,0,4.217-1.323,4.206-3.957m.712-.034a4.363,4.363,0,0,1-1.244,3.381A5.189,5.189,0,0,1,32.7,73.859H30.45V64.971h2.544A4.788,4.788,0,0,1,36.42,66.08,4.308,4.308,0,0,1,37.6,69.325" transform="translate(2.837 6.419)" fill="#fff"/>
      <path id="Path_5" d="M40.8,73.883H40.17V67.268H40.8Zm-.724-8.446c0-.4.136-.577.407-.577a.421.421,0,0,1,.317.147.723.723,0,0,1,.113.43.815.815,0,0,1-.113.43.381.381,0,0,1-.317.158c-.271,0-.407-.192-.407-.588" transform="translate(4.095 6.406)" fill="#fff"/>
      <path id="Path_6" d="M44.851,69.074a1.515,1.515,0,0,0,.486,1.187,2.293,2.293,0,0,0,2.657,0,1.544,1.544,0,0,0,.464-1.221,1.6,1.6,0,0,0-.475-1.266,1.935,1.935,0,0,0-1.345-.418,1.811,1.811,0,0,0-1.312.452,1.635,1.635,0,0,0-.475,1.266m-.531,5.665q0,1.357,2.137,1.357,2.748,0,2.748-1.662a.936.936,0,0,0-.43-.859,2.714,2.714,0,0,0-1.4-.271H46.231c-1.278,0-1.922.475-1.922,1.425M49.973,67v.418l-1.447.079a2.224,2.224,0,0,1,.577,1.492,1.968,1.968,0,0,1-.667,1.549,2.625,2.625,0,0,1-1.809.588,4.323,4.323,0,0,1-.667-.034,1.575,1.575,0,0,0-.577.441.914.914,0,0,0-.2.543.5.5,0,0,0,.249.464,1.846,1.846,0,0,0,.848.147H47.5a3.03,3.03,0,0,1,1.741.43,1.5,1.5,0,0,1,.611,1.289,1.829,1.829,0,0,1-.893,1.617,4.769,4.769,0,0,1-2.555.565,3.7,3.7,0,0,1-2.047-.475,1.52,1.52,0,0,1-.724-1.334,1.609,1.609,0,0,1,.452-1.131,2.377,2.377,0,0,1,1.21-.611,1.315,1.315,0,0,1-.5-.362.837.837,0,0,1-.192-.543c0-.441.294-.825.893-1.165a2,2,0,0,1-.95-.746,2.194,2.194,0,0,1,.328-2.748,2.588,2.588,0,0,1,1.8-.6A3.7,3.7,0,0,1,47.734,67h2.239Z" transform="translate(4.559 6.67)" fill="#fff"/>
      <path id="Path_7" d="M52.784,73.883H52.15V67.268h.633Zm-.724-8.446c0-.4.136-.577.407-.577a.381.381,0,0,1,.305.147.723.723,0,0,1,.113.43.815.815,0,0,1-.113.43.361.361,0,0,1-.305.158c-.271,0-.407-.192-.407-.588" transform="translate(5.661 6.406)" fill="#fff"/>
      <path id="Path_8" d="M58.361,73.379a5.434,5.434,0,0,0,1.052-.1v.486a3.4,3.4,0,0,1-1.063.147,1.8,1.8,0,0,1-1.368-.464,2.087,2.087,0,0,1-.441-1.47V67.714H55.5v-.351l1.04-.271.328-1.492H57.2v1.594h2.058v.52H57.2V71.9a1.772,1.772,0,0,0,.283,1.119,1.03,1.03,0,0,0,.893.362" transform="translate(6.11 6.503)" fill="#fff"/>
      <path id="Path_9" d="M63.666,73.189a2.5,2.5,0,0,0,1.764-.6,2.173,2.173,0,0,0,.644-1.685V70.26l-1.221.045a5.006,5.006,0,0,0-2.1.43,1.219,1.219,0,0,0-.622,1.142,1.188,1.188,0,0,0,.4.961,1.7,1.7,0,0,0,1.131.339m2.578.441-.158-1.052h-.045a3.344,3.344,0,0,1-1.085.9,3.283,3.283,0,0,1-1.312.271,2.426,2.426,0,0,1-1.606-.5,1.772,1.772,0,0,1-.577-1.379,1.7,1.7,0,0,1,.848-1.5,4.8,4.8,0,0,1,2.465-.565l1.334-.034v-.441A2.151,2.151,0,0,0,65.69,67.9a1.638,1.638,0,0,0-1.3-.486,4.614,4.614,0,0,0-2.013.509l-.237-.52a5.463,5.463,0,0,1,2.273-.509A2.016,2.016,0,0,1,66.7,69.22v4.4h-.464Z" transform="translate(6.888 6.671)" fill="#fff"/>
      <rect id="Rectangle_7" width="0.633" height="9.464" transform="translate(77.7 70.825)" fill="#fff"/>
      <path id="Path_10" d="M79.893,70.174h3.369l-1.278-3.211c-.113-.249-.237-.6-.384-1.04a6.875,6.875,0,0,1-.384,1.051l-1.323,3.2Zm3.584.565H79.655l-1.312,3.132H77.62L81.4,64.95h.418l3.7,8.921h-.735Z" transform="translate(9.001 6.418)" fill="#fff"/>
      <path id="Path_11" d="M87.7,69.074a1.5,1.5,0,0,0,.486,1.187,2.293,2.293,0,0,0,2.657,0,1.544,1.544,0,0,0,.464-1.221,1.6,1.6,0,0,0-.475-1.266,1.935,1.935,0,0,0-1.346-.418,1.8,1.8,0,0,0-1.312.452,1.635,1.635,0,0,0-.475,1.266m-.531,5.665q0,1.357,2.137,1.357,2.748,0,2.748-1.662a.936.936,0,0,0-.43-.859,2.714,2.714,0,0,0-1.4-.271H89.079c-1.278,0-1.922.475-1.922,1.425M92.822,67v.418l-1.447.079a2.224,2.224,0,0,1,.577,1.492,1.942,1.942,0,0,1-.678,1.549,2.615,2.615,0,0,1-1.8.588,4.323,4.323,0,0,1-.667-.034,1.575,1.575,0,0,0-.577.441.837.837,0,0,0-.192.543.5.5,0,0,0,.249.464,1.846,1.846,0,0,0,.848.147h1.221a2.945,2.945,0,0,1,1.741.43,1.5,1.5,0,0,1,.611,1.289,1.816,1.816,0,0,1-.893,1.617,4.769,4.769,0,0,1-2.555.565,3.7,3.7,0,0,1-2.047-.475,1.52,1.52,0,0,1-.724-1.334,1.609,1.609,0,0,1,.452-1.131,2.378,2.378,0,0,1,1.21-.611,1.354,1.354,0,0,1-.509-.362.837.837,0,0,1-.192-.543c0-.441.294-.825.893-1.165a2,2,0,0,1-.95-.746,2.194,2.194,0,0,1,.328-2.748,2.588,2.588,0,0,1,1.8-.6A3.826,3.826,0,0,1,90.594,67h2.239Z" transform="translate(10.16 6.67)" fill="#fff"/>
      <path id="Path_12" d="M97.671,67.423a2.155,2.155,0,0,0-1.617.633,2.876,2.876,0,0,0-.712,1.809h4.319a2.766,2.766,0,0,0-.531-1.8,1.769,1.769,0,0,0-1.459-.645m.192,6.309a3.137,3.137,0,0,1-2.374-.882,3.466,3.466,0,0,1-.848-2.487,3.738,3.738,0,0,1,.825-2.533,2.725,2.725,0,0,1,2.216-.95,2.44,2.44,0,0,1,1.945.814,3.208,3.208,0,0,1,.712,2.216V70.4H95.308a3.011,3.011,0,0,0,.667,2.08,2.451,2.451,0,0,0,1.888.712,6.588,6.588,0,0,0,1.052-.079,6.754,6.754,0,0,0,1.153-.339v.543a5.324,5.324,0,0,1-1.1.328,7.2,7.2,0,0,1-1.108.09" transform="translate(11.224 6.67)" fill="#fff"/>
      <path id="Path_13" d="M107.892,73.618V69.333a2.03,2.03,0,0,0-.441-1.447,1.845,1.845,0,0,0-1.379-.452,2.454,2.454,0,0,0-1.832.6,2.674,2.674,0,0,0-.577,1.945V73.63h-.633v-6.6h.543l.124.9h.034a2.666,2.666,0,0,1,2.431-1.029,2.1,2.1,0,0,1,2.374,1.82,2.653,2.653,0,0,1,0,.6v4.319h-.622Z" transform="translate(12.321 6.671)" fill="#fff"/>
      <path id="Path_14" d="M114.349,73.742a3.056,3.056,0,0,1-2.34-.893,3.466,3.466,0,0,1-.848-2.487,3.524,3.524,0,0,1,.882-2.555,3.2,3.2,0,0,1,2.408-.916,5.414,5.414,0,0,1,1.741.294l-.17.531a5.35,5.35,0,0,0-1.572-.283,2.451,2.451,0,0,0-1.945.746,3.216,3.216,0,0,0-.667,2.16,3.04,3.04,0,0,0,.667,2.092,2.347,2.347,0,0,0,1.854.758,4.737,4.737,0,0,0,1.764-.328v.565a4.046,4.046,0,0,1-1.753.305" transform="translate(13.383 6.671)" fill="#fff"/>
      <path id="Path_15" d="M117.64,67h.656l1.481,3.709c.452,1.142.735,1.911.859,2.307h.034q.271-.78.882-2.341L123.033,67h.656l-3.132,7.677a6.026,6.026,0,0,1-.633,1.266,1.675,1.675,0,0,1-.6.486,2.088,2.088,0,0,1-.837.17,2.843,2.843,0,0,1-.814-.124v-.52a3.188,3.188,0,0,0,.8.1,1.123,1.123,0,0,0,.577-.147,1.44,1.44,0,0,0,.452-.452,5.161,5.161,0,0,0,.475-.972c.181-.441.294-.735.339-.871L117.651,67Z" transform="translate(14.23 6.686)" fill="#fff"/>
    </g>
    <g id="Group_13874" data-name="Group 13874" transform="translate(590.333)" opacity="0.6">
      <g id="Mask_Group_15" data-name="Mask Group 15" clip-path="url(#clip-path)">
        <g id="Group_13871" data-name="Group 13871" transform="translate(-422.499 -0.118)">
          <path id="Path_2550" data-name="Path 2550" d="M131.543,174.64A211.32,211.32,0,0,1,326.2,303.667l3.768,9.589a210.64,210.64,0,0,1,12.823,72.63V174.64Z" transform="translate(-131.329 -174.457)" fill="#01827b" fill-rule="evenodd"/>
          <path id="Path_2551" data-name="Path 2551" d="M1088.078,313.1l-3.77-9.591a211.438,211.438,0,0,0-194.767-129.1H678.378v-.061H467.011v.244c114.482,0,209.176,93.095,211.089,207.52v3.664h.244v-.061h.034v-3.539c1.913-114.413,96.581-207.5,211.042-207.524a211.184,211.184,0,0,0,200.654,210.979H889.411v.121h0c0,116.414-94.71,211.123-211.123,211.123v.245H889.653A211.187,211.187,0,0,0,1100.9,385.9l.009-.122a210.519,210.519,0,0,0-12.831-72.676m9.677,72.652Z" transform="translate(-255.606 -174.35)" fill="#20cec7"/>
          <path id="Path_2552" data-name="Path 2552" d="M326.239,303.55v0a211.442,211.442,0,0,0-194.767-129.1h-.122v.122A211.187,211.187,0,0,0,342.716,385.936h.122v-.122a210.52,210.52,0,0,0-12.831-72.675Z" transform="translate(-131.257 -174.386)" fill="#20cec7"/>
          <path id="Path_2553" data-name="Path 2553" d="M765,596.88v.025a211.182,211.182,0,0,0-211.16,203.476A211.168,211.168,0,0,0,352.883,597.149H554.005v-.028A211.187,211.187,0,0,0,765.251,385.755v-.122h-.063V174.41h-.122A211.182,211.182,0,0,0,553.838,378,211.179,211.179,0,0,0,342.608,174.35h-.122V385.633h-2.854c-114.743-1.614-208.093-96.313-208.093-211.1H131.3v211.1H131.2v.122A211.172,211.172,0,0,0,332.368,596.88H131.2V597A211.185,211.185,0,0,0,342.5,808.369v.026H765.188v-.026A211.185,211.185,0,0,0,976.494,597v-.122Z" transform="translate(-131.203 -174.35)" fill="#17827b"/>
          <path id="Path_2554" data-name="Path 2554" d="M1349.413,385.885v0c-116.668,0-211.237-94.576-211.237-211.245V385.885h211.237c-.013,116.662-94.581,211.223-211.246,211.223h211.246V385.885h0" transform="translate(-504.241 -174.457)" fill="#1c9891" fill-rule="evenodd"/>
          <path id="Path_2555" data-name="Path 2555" d="M1332.836,303.667l3.768,9.589a210.649,210.649,0,0,1,12.823,72.63V174.64H1138.182a211.319,211.319,0,0,1,194.654,129.027" transform="translate(-504.246 -174.457)" fill="#01827b" fill-rule="evenodd"/>
          <path id="Path_2556" data-name="Path 2556" d="M678.231,845.755h-211.2c115.224,0,208.89,92.241,211.2,206.912V1057q0-1.541.024-3.077.022,1.537.024,3.077v-4.334c2.308-114.671,95.974-206.912,211.2-206.912H678.231Z" transform="translate(-255.613 -423.077)" fill="#0aafa8" fill-rule="evenodd"/>
          <path id="Path_2557" data-name="Path 2557" d="M131.4,845.715v211.245H342.641c-116.672,0-211.245-94.573-211.245-211.245" transform="translate(-131.275 -423.063)" fill="#0aafa8" fill-rule="evenodd"/>
          <path id="Path_2558" data-name="Path 2558" d="M131.4,510.157V721.4H342.641C225.969,721.4,131.4,626.83,131.4,510.157" transform="translate(-131.275 -298.752)" fill="#0aafa8" fill-rule="evenodd"/>
          <path id="Path_2559" data-name="Path 2559" d="M1138.162,1056.96h211.246V845.715c0,116.672-94.573,211.246-211.246,211.246" transform="translate(-504.238 -423.062)" fill="#0aafa8" fill-rule="evenodd"/>
          <path id="Path_2560" data-name="Path 2560" d="M510.454,448A105.624,105.624,0,1,0,404.83,553.628,105.624,105.624,0,0,0,510.454,448" transform="translate(-193.441 -236.598)" fill="#0aafa8" fill-rule="evenodd"/>
        </g>
      </g>
    </g>
    <text id="Your_digital_partner_for_social_impact." data-name="Your digital partner
for social impact." transform="translate(90 286)" fill="#fff" font-size="62" font-family="Commissioner-Medium, Commissioner" font-weight="500"><tspan x="0" y="0">Your digital partner</tspan><tspan x="0" y="84">for social impact</tspan><tspan y="84" fill="#1be3d9">.</tspan></text>
    <g id="Group_13876" data-name="Group 13876" transform="translate(-2488 -1398)">
      <rect id="Rectangle_20632" data-name="Rectangle 20632" width="236" height="75" rx="37.5" transform="translate(2578 1824)" fill="#202020"/>
      <g id="Group_13875" data-name="Group 13875" transform="translate(2119 855)">
        <g id="Group_10217" data-name="Group 10217" transform="translate(139 956)">
          <g id="Path_1630" data-name="Path 1630" transform="translate(500 32)" fill="none">
            <path d="M20,0A20,20,0,1,1,0,20,20,20,0,0,1,20,0Z" stroke="none"/>
            <path d="M 20 1 C 17.43457984924316 1 14.94642066955566 1.502220153808594 12.60465049743652 2.492698669433594 C 10.34226036071777 3.449611663818359 8.310220718383789 4.819721221923828 6.564968109130859 6.564968109130859 C 4.819721221923828 8.310220718383789 3.449611663818359 10.34226036071777 2.492698669433594 12.60465049743652 C 1.502220153808594 14.94642066955566 1 17.43457984924316 1 20 C 1 22.5654296875 1.502220153808594 25.05358123779297 2.492698669433594 27.39535140991211 C 3.449611663818359 29.65773963928223 4.819721221923828 31.68978118896484 6.564968109130859 33.43502807617188 C 8.310220718383789 35.18027877807617 10.34226036071777 36.55038833618164 12.60465049743652 37.50730133056641 C 14.94642066955566 38.49777984619141 17.43457984924316 39 20 39 C 22.5654296875 39 25.05358123779297 38.49777984619141 27.39535140991211 37.50730133056641 C 29.65773963928223 36.55038833618164 31.68978118896484 35.18027877807617 33.43502807617188 33.43502807617188 C 35.18027877807617 31.68978118896484 36.55038833618164 29.65773963928223 37.50730133056641 27.39535140991211 C 38.49777984619141 25.05358123779297 39 22.5654296875 39 20 C 39 17.43457984924316 38.49777984619141 14.94642066955566 37.50730133056641 12.60465049743652 C 36.55038833618164 10.34226036071777 35.18027877807617 8.310220718383789 33.43502807617188 6.564968109130859 C 31.68978118896484 4.819721221923828 29.65773963928223 3.449611663818359 27.39535140991211 2.492698669433594 C 25.05358123779297 1.502220153808594 22.5654296875 1 20 1 M 20 0 C 31.04570007324219 0 40 8.954309463500977 40 20 C 40 31.04570007324219 31.04570007324219 40 20 40 C 8.954309463500977 40 0 31.04570007324219 0 20 C 0 8.954309463500977 8.954309463500977 0 20 0 Z" stroke="none" fill="#1be3d9"/>
          </g>
          <path id="arrow-right-light_2_" data-name="arrow-right-light (2)" d="M15.3,7.014a.554.554,0,0,0,0-.78L9.225.16a.552.552,0,0,0-.78.78l5.132,5.132H.552a.552.552,0,1,0,0,1.1H13.577L8.445,12.309a.552.552,0,1,0,.78.78Z" transform="translate(512.189 45.375)" fill="#fff"/>
        </g>
        <text id="See_more" data-name="See more" transform="translate(489 1016)" fill="#fff" font-size="30" font-family="Commissioner-Regular, Commissioner"><tspan x="0" y="0">See more</tspan></text>
      </g>
    </g>
    <path id="Path_2654" data-name="Path 2654" d="M1333.071,303.822l3.773,9.6a210.9,210.9,0,0,1,12.838,72.718V174.64h-211.5a211.574,211.574,0,0,1,194.889,129.182" transform="translate(-336.682 -174.64)" fill="#136a65" fill-rule="evenodd"/>
    <path id="Path_2655" data-name="Path 2655" d="M1333.071,303.822l3.773,9.6a210.9,210.9,0,0,1,12.838,72.718V174.64h-211.5a211.574,211.574,0,0,1,194.889,129.182" transform="translate(1187.64 -926.932) rotate(90)" fill="#136a65" fill-rule="evenodd"/>
    <path id="Path_2656" data-name="Path 2656" d="M194.889,129.182l3.773,9.6A210.9,210.9,0,0,1,211.5,211.5V0H0A211.574,211.574,0,0,1,194.889,129.182" transform="translate(1013 422.5) rotate(90)" fill="#136a65" fill-rule="evenodd"/>
  </g>
</svg>
