<?xml version="1.0" encoding="UTF-8"?>
<svg id="Laag_1" xmlns="http://www.w3.org/2000/svg" xmlns:xlink="http://www.w3.org/1999/xlink" version="1.1" viewBox="0 0 1013 634">
  <!-- Generator: Adobe Illustrator 30.0.0, SVG Export Plug-In . SVG Version: 2.1.1 Build 123)  -->
  <defs>
    <style>
      .st0 {
        fill: none;
      }

      .st1 {
        fill: #1be3d9;
      }

      .st2 {
        fill: #136a65;
      }

      .st2, .st3, .st4, .st5 {
        fill-rule: evenodd;
      }

      .st3 {
        fill: #1c9891;
      }

      .st6 {
        fill: #17827b;
      }

      .st7 {
        isolation: isolate;
      }

      .st4 {
        fill: #0aafa8;
      }

      .st5 {
        fill: #01827b;
      }

      .st8 {
        fill: #fff;
      }

      .st9 {
        opacity: .6;
      }

      .st10 {
        fill: #202020;
      }

      .st11 {
        fill: #20cec7;
      }

      .st12 {
        clip-path: url(#clippath);
      }
    </style>
    <clipPath id="clippath">
      <rect class="st0" x="590" y="0" width="423" height="634"/>
    </clipPath>
  </defs>
  <rect class="st0" y="0" width="1013" height="634"/>
  <g id="Large">
    <rect class="st6" y="0" width="1013" height="634"/>
    <g id="logo-yard-da">
      <path id="Path_1" class="st8" d="M86.75,113.96l-.95-.7c-.5-.85-.75-5.05-.75-12.61v-3.83c-.03-.97.06-1.95.25-2.9.31-1.27,1.91-4.16,4.84-8.69,5.19-8.04,9.97-14.83,14.33-20.37v-1.36l-.42-.38h-6.04c-.85,1.49-1.53,2.67-2.02,3.52l-4.59,7.69c-4.58,7.39-7.69,12.32-9.32,14.77l-5.42-10.12c-3.95-7.39-7.09-12.16-9.44-14.3-1.14-1.04-2.44-1.88-3.84-2.51-1.91.52-6.23,1.4-12.96,2.63l-.41.43v2.16l.45.43c1.04-.06,2.08.02,3.1.25.95.56,1.82,1.25,2.57,2.07,2.62,2.5,6.14,7.24,10.56,14.22,4.33,6.86,6.5,10.78,6.5,11.76v4.56c0,7.55-.25,11.75-.75,12.61l-.95.69c-1.68.29-3.38.46-5.09.51l-.4.39v2.63l.37.35c2.59-.16,6.84-.24,12.75-.24s10.02.08,12.75.24l.41-.4v-2.58l-.41-.38c-1.71-.05-3.41-.21-5.09-.5"/>
      <path id="Path_2" class="st8" d="M119.04,108.35c-1.42,2.3-3.96,3.68-6.66,3.63-3.28,0-4.92-1.75-4.92-5.26-.13-1.94.78-3.8,2.37-4.9,1.59-1.06,4.66-2.07,9.22-3v9.51h0v.02ZM163.7,87.13l.29-6.87c-.94-.33-1.94-.49-2.94-.46-1.69-.09-3.34.46-4.64,1.55-2.43,2.48-4.5,4.64-6.21,6.49l.09-7.58-.92-.5c-5.1,1.62-10.36,2.69-15.68,3.2l-.41.43v2.17l.41.38c2.07.08,3.27.15,3.6.19.72.01,1.38.37,1.79.96.42.78.63,3.75.62,8.9v5.53c0,3.84-.09,7.44-.28,10.79-.06,1.01-.36,1.63-.9,1.85-1.6.45-3.27.64-4.93.58l-.03.03c-1.15.04-2.3-.12-3.39-.49-.62-.49-.98-1.24-.97-2.03-.14-1.07-.21-3.55-.21-7.44,0-1.21.07-3.62.21-7.22.08-2.17.12-3.74.12-4.72,0-3.99-.84-6.95-2.53-8.89-2.32-2.66-6.2-3.98-11.64-3.98-1.26-.02-2.52.07-3.76.27-2.3.41-5.72,2.19-10.27,5.34l-.2,4.56.28.54,2.11.46.54-.27,1.57-3.6c1.54-.9,3.31-1.33,5.09-1.23,1.77-.04,3.51.4,5.04,1.28,2.32,1.39,3.48,4.13,3.48,8.23-8.93,1.47-14.88,3.12-17.84,4.95-2.74,1.67-4.09,4.52-4.09,8.55-.15,2.61.73,5.18,2.47,7.15,1.88,1.82,4.44,2.77,7.06,2.6.55,0,1.1-.02,1.65-.08.97-.04,1.91-.32,2.74-.81l8.03-5.72-.37,5.18.37.43c2.15-.12,4.4-.19,6.75-.19,2.87,0,5.43.06,7.69.18l.1.09c2.6-.18,6.37-.27,11.31-.27,4,0,8.03.08,12.09.24l.41-.4v-2.36l-.41-.35c-3.31-.1-5.24-.29-5.75-.58-.6-.42-.93-1.13-.87-1.85-.19-3.35-.29-5.97-.29-7.85v-9.04c-.11-1.51.33-3.01,1.24-4.22,1.27-1.51,3.16-2.36,5.13-2.32,2.12-.08,4.15.91,5.38,2.63l1.74-.5c.08-1.45.14-2.73.17-3.87"/>
      <path id="Path_3" class="st8" d="M192.31,97.3c0,5.64-.04,8.65-.12,9.01-.45,1.41-1.41,2.59-2.69,3.32-1.6,1.13-3.5,1.74-5.46,1.74-2.09.1-4.13-.63-5.68-2.05-2.67-2.58-4-6.54-4.01-11.87-.03-2.3.27-4.59.9-6.81.76-3.4,3.89-5.73,7.37-5.48,1.35,0,2.69.21,3.98.62,2.23.91,4.19,2.38,5.71,4.25v7.27h0ZM208.25,115c-1.39-.05-2.77-.22-4.14-.5-.41-.12-.75-.42-.92-.81-.36-.72-.54-4.7-.54-11.94v-12.49c0-11.1.12-19.43.37-24.98.11-2.45.17-3.72.17-3.82l-.92-.46c-5.22,1.59-10.59,2.67-16.02,3.21l-.42.43v2.13l.42.43c2.09.08,3.37.16,3.81.24.77.02,1.44.51,1.7,1.23.36,1.21.54,5.21.54,11.99v2.17c-2.52-1.14-5.26-1.72-8.03-1.71-1.71-.05-3.42.21-5.04.77-2.54,1.18-4.97,2.59-7.25,4.22-1.86,1.12-3.59,2.45-5.13,3.98-2.24,2.86-3.36,6.85-3.36,11.99,0,5.28,1.45,9.58,4.34,12.91,2.86,3.3,7.06,5.13,11.42,4.99,1.46.08,2.92-.11,4.3-.58,1.58-1.07,3.08-2.26,4.48-3.56,1.85-1.59,3.27-2.78,4.26-3.55,0,2.96-.06,5.08-.17,6.34l.37.27c3.54-.18,6.33-.27,8.4-.27,2.18,0,4.62.09,7.33.27l.42-.38v-2.1l-.4-.4h0Z"/>
      <path id="Path_4" class="st8" d="M89.71,135.79c.08-1.06-.29-2.1-1.03-2.87-.84-.7-1.92-1.04-3.01-.96h-1.73v7.79h1.56c2.8,0,4.22-1.32,4.21-3.96M90.42,135.76c.09,1.25-.36,2.49-1.24,3.38-1.02.83-2.33,1.24-3.64,1.14h-2.25v-8.89h2.54c1.24-.09,2.47.31,3.43,1.11.83.87,1.26,2.05,1.18,3.24"/>
      <path id="Path_5" class="st8" d="M94.9,140.29h-.63v-6.62h.63v6.62ZM94.17,131.84c0-.4.14-.58.41-.58.12,0,.24.05.32.15.08.13.12.28.11.43,0,.15-.04.3-.11.43-.07.1-.19.16-.32.16-.27,0-.41-.19-.41-.59"/>
      <path id="Path_6" class="st8" d="M99.41,135.74c-.02.45.16.88.49,1.19.8.57,1.86.57,2.66,0,.33-.32.5-.77.46-1.22.04-.47-.14-.93-.47-1.27-.38-.3-.86-.45-1.35-.42-.48-.03-.95.13-1.31.45-.33.33-.51.8-.47,1.27M98.88,141.41c0,.9.71,1.36,2.14,1.36,1.83,0,2.75-.55,2.75-1.66.03-.34-.14-.67-.43-.86-.43-.21-.92-.31-1.4-.27h-1.14c-1.28,0-1.92.47-1.92,1.43M104.53,133.67v.42l-1.45.08c.37.41.58.94.58,1.49.02.59-.22,1.16-.67,1.55-.51.42-1.15.63-1.81.59-.22,0-.45,0-.67-.03-.22.1-.42.25-.58.44-.12.15-.19.35-.2.54-.01.19.08.37.25.46.27.12.56.17.85.15h1.22c.61-.04,1.22.11,1.74.43.41.3.64.78.61,1.29.02.66-.33,1.28-.89,1.62-.78.42-1.67.62-2.56.57-.71.04-1.42-.12-2.05-.47-.46-.28-.74-.79-.72-1.33,0-.42.16-.83.45-1.13.34-.32.76-.53,1.21-.61-.19-.08-.36-.2-.5-.36-.13-.15-.19-.34-.19-.54,0-.44.29-.82.89-1.17-.39-.14-.72-.41-.95-.75-.56-.88-.42-2.03.33-2.75.5-.42,1.15-.64,1.8-.6.36,0,.71.03,1.06.13h2.24Z"/>
      <path id="Path_7" class="st8" d="M108.44,140.29h-.63v-6.62h.63v6.62ZM107.72,131.84c0-.4.14-.58.41-.58.12,0,.23.05.31.15.08.13.12.28.11.43,0,.15-.04.3-.11.43-.07.1-.18.16-.31.16-.27,0-.41-.19-.41-.59"/>
      <path id="Path_8" class="st8" d="M114.47,139.88c.35,0,.71-.03,1.05-.1v.49c-.34.1-.7.15-1.06.15-.5.04-1-.13-1.37-.46-.33-.42-.49-.94-.44-1.47v-4.26h-1.04v-.35l1.04-.27.33-1.49h.33v1.59h2.06v.52h-2.06v4.19c-.03.39.07.79.28,1.12.22.26.55.4.89.36"/>
      <path id="Path_9" class="st8" d="M120.55,139.86c.64.03,1.28-.18,1.76-.6.45-.44.68-1.06.64-1.68v-.64l-1.22.04c-.72,0-1.44.14-2.1.43-.41.23-.65.67-.62,1.14-.02.36.13.72.4.96.32.24.73.36,1.13.34M123.13,140.29l-.16-1.05h-.04c-.29.37-.66.68-1.08.9-.41.18-.86.27-1.31.27-.58.03-1.15-.15-1.61-.5-.39-.35-.6-.86-.58-1.38-.01-.62.31-1.19.85-1.5.76-.41,1.61-.6,2.47-.57l1.33-.03v-.44c.03-.51-.11-1.01-.41-1.42-.34-.35-.82-.52-1.3-.49-.7.01-1.39.19-2.01.51l-.24-.52c.71-.33,1.49-.5,2.27-.51,1.1-.16,2.13.59,2.29,1.7.03.21.03.42,0,.63v4.4h-.46,0Z"/>
      <rect id="Rectangle_7" class="st8" x="127.7" y="130.83" width=".63" height="9.46"/>
      <path id="Path_10" class="st8" d="M138.89,136.59h3.37l-1.28-3.21c-.11-.25-.24-.6-.38-1.04-.1.36-.23.71-.38,1.05l-1.32,3.2ZM142.48,137.16h-3.82l-1.31,3.13h-.72l3.78-8.92h.42l3.7,8.92h-.74l-1.31-3.13Z"/>
      <path id="Path_11" class="st8" d="M147.86,135.74c-.02.45.15.88.49,1.19.8.57,1.86.57,2.66,0,.33-.32.5-.77.46-1.22.04-.47-.14-.93-.47-1.27-.38-.3-.86-.45-1.35-.42-.48-.03-.95.13-1.31.45-.33.33-.51.8-.47,1.27M147.33,141.41c0,.9.71,1.36,2.14,1.36,1.83,0,2.75-.55,2.75-1.66.03-.34-.14-.67-.43-.86-.43-.21-.92-.31-1.4-.27h-1.14c-1.28,0-1.92.47-1.92,1.43M152.98,133.67v.42l-1.45.08c.37.41.58.94.58,1.49.02.59-.23,1.16-.68,1.55-.51.41-1.15.62-1.8.59-.22,0-.45,0-.67-.03-.22.1-.42.25-.58.44-.13.15-.19.34-.19.54-.01.19.08.37.25.46.27.12.56.17.85.15h1.22c.61-.04,1.22.11,1.74.43.41.3.64.78.61,1.29.02.66-.32,1.28-.89,1.62-.78.42-1.67.62-2.56.57-.71.04-1.42-.12-2.05-.47-.46-.28-.74-.79-.72-1.33,0-.42.16-.83.45-1.13.34-.32.76-.53,1.21-.61-.2-.08-.37-.2-.51-.36-.13-.15-.19-.34-.19-.54,0-.44.29-.82.89-1.17-.39-.14-.72-.41-.95-.75-.56-.88-.42-2.03.33-2.75.5-.42,1.15-.64,1.8-.6.36,0,.72.03,1.07.13h2.24-.01Z"/>
      <path id="Path_12" class="st8" d="M158.89,134.09c-.6-.03-1.19.2-1.62.63-.44.5-.69,1.14-.71,1.81h4.32c.04-.64-.15-1.28-.53-1.8-.36-.43-.9-.67-1.46-.64M159.09,140.4c-.88.05-1.74-.27-2.37-.88-.6-.69-.9-1.58-.85-2.49-.05-.92.25-1.82.82-2.53.55-.64,1.37-1,2.22-.95.74-.04,1.45.26,1.94.81.51.62.76,1.41.71,2.22v.49h-5.03c-.05.75.19,1.49.67,2.08.5.5,1.19.76,1.89.71.35,0,.7-.02,1.05-.08.39-.08.78-.19,1.15-.34v.54c-.35.15-.72.26-1.1.33-.37.06-.74.09-1.11.09"/>
      <path id="Path_13" class="st8" d="M170.21,140.29v-4.28c.04-.52-.11-1.04-.44-1.45-.38-.33-.88-.5-1.38-.45-.67-.06-1.33.16-1.83.6-.44.55-.65,1.25-.58,1.94v3.65h-.63v-6.6h.54l.12.9h.03c.57-.75,1.5-1.14,2.43-1.03,1.15-.16,2.21.64,2.37,1.79,0,.01,0,.02,0,.03.02.2.02.4,0,.6v4.32h-.62l-.02-.02Z"/>
      <path id="Path_14" class="st8" d="M177.73,140.41c-.87.05-1.72-.27-2.34-.89-.6-.69-.9-1.58-.85-2.49-.06-.94.26-1.85.88-2.56.64-.63,1.51-.96,2.41-.92.59,0,1.18.1,1.74.29l-.17.53c-.51-.17-1.04-.27-1.57-.28-.73-.05-1.44.22-1.94.75-.48.62-.71,1.38-.67,2.16-.05.76.19,1.5.67,2.09.47.52,1.15.79,1.85.76.6,0,1.2-.11,1.76-.33v.57c-.55.23-1.15.33-1.75.31"/>
      <path id="Path_15" class="st8" d="M181.87,133.69h.66l1.48,3.71c.45,1.14.74,1.91.86,2.31h.03c.18-.52.47-1.3.88-2.34l1.48-3.67h.66l-3.13,7.68c-.16.45-.37.87-.63,1.27-.16.21-.36.37-.6.49-.26.11-.55.17-.84.17-.28,0-.55-.04-.81-.12v-.52c.26.07.53.1.8.1.2,0,.4-.05.58-.15.18-.11.34-.27.45-.45.19-.31.35-.63.47-.97.18-.44.29-.74.34-.87l-2.66-6.61h-.01Z"/>
    </g>
    <g id="Group_13874" class="st9">
      <g class="st12">
        <g id="Mask_Group_15">
          <g id="Group_13871">
            <path id="Path_2550" class="st5" d="M168.05.07c84.92,0,161.59,50.81,194.66,129.03l3.77,9.59c8.51,23.27,12.85,47.85,12.82,72.63V.07h-211.25Z"/>
            <path id="Path_2551" class="st11" d="M1000.31,138.63l-3.77-9.59C963.45,50.78,886.73-.07,801.77-.06h-211.16v-.06h-211.37V.12c114.48,0,209.18,93.1,211.09,207.52v3.66h.24v-.06h.03v-3.54C592.52,93.3,687.19.21,801.65.18c-.03,112.56,88.23,205.37,200.65,210.98h-200.66v.12h0c0,116.41-94.71,211.12-211.12,211.12v.24h211.36c116.64.03,211.21-94.49,211.25-211.13v-.22c.04-24.79-4.3-49.4-12.82-72.68h0Z"/>
            <path id="Path_2552" class="st11" d="M362.82,129.05h0C329.73,50.79,253.01-.06,168.05-.05h-.12v.12c-.1,116.64,94.37,211.27,211.01,211.36.12,0,.24,0,.36,0h.12v-.12c.04-24.79-4.31-49.39-12.83-72.68l-3.77-9.59Z"/>
            <path id="Path_2553" class="st6" d="M801.63,422.41v.03c-113.68-.06-207.01,89.87-211.16,203.48-4-109.67-91.34-198-200.96-203.23h201.12v-.03c116.64.03,211.21-94.49,211.25-211.13,0-.08,0-.16,0-.24v-.12h-.06V-.06h-.12c-113.75-.1-207.14,89.91-211.23,203.59C586.41,89.83,493.01-.22,379.24-.12h-.12v211.28h-2.85C261.52,209.55,168.17,114.85,168.17.07h-.24v211.1h-.1v.12c-.1,112.81,88.48,205.78,201.17,211.12h-201.17v.12c-.1,116.63,94.37,211.27,211,211.37.1,0,.2,0,.3,0v.03h422.69v-.03c116.63.07,211.24-94.43,211.31-211.06,0-.1,0-.2,0-.31v-.12h-211.49Z"/>
            <path id="Path_2554" class="st3" d="M1013.01,211.31h0c-116.67,0-211.24-94.58-211.24-211.24v211.24h211.24c-.01,116.66-94.58,211.22-211.25,211.22h211.25v-211.22h0"/>
            <path id="Path_2555" class="st5" d="M996.42,129.09l3.77,9.59c8.51,23.27,12.85,47.85,12.82,72.63V.07h-211.24c84.92,0,161.59,50.82,194.65,129.03"/>
            <path id="Path_2556" class="st4" d="M590.45,422.56h-211.2c115.22,0,208.89,92.24,211.2,206.91v4.33c0-1.03,0-2.05.02-3.08.01,1.02.02,2.05.02,3.08v-4.33c2.31-114.67,95.97-206.91,211.2-206.91h-211.25Z"/>
            <path id="Path_2557" class="st4" d="M167.96,422.53v211.24h211.24c-116.67,0-211.24-94.57-211.24-211.24"/>
            <path id="Path_2558" class="st4" d="M167.96,211.29v211.24h211.24c-116.67,0-211.24-94.57-211.24-211.24"/>
            <path id="Path_2559" class="st4" d="M801.76,633.78h211.25v-211.24c0,116.67-94.57,211.25-211.25,211.25"/>
            <path id="Path_2560" class="st4" d="M484.85,211.28c0-58.33-47.29-105.62-105.63-105.62-58.33,0-105.62,47.29-105.62,105.63,0,58.33,47.29,105.62,105.62,105.62s105.62-47.29,105.62-105.62h0"/>
          </g>
        </g>
      </g>
    </g>
    <g id="Your_digital_partner_for_social_impact." class="st7">
      <g class="st7">
        <path class="st8" d="M107.14,269.32l-9.46-16.68c-1.01-1.78-1.98-3.5-2.91-5.16-.93-1.66-2-3.56-3.22-5.69h8.31c.99,1.88,1.84,3.5,2.56,4.85s1.38,2.63,2.02,3.84c.63,1.21,1.33,2.55,2.09,4.01l3.75,7.13h.68l3.66-6.91c.83-1.53,1.57-2.92,2.23-4.18.66-1.26,1.36-2.57,2.09-3.94.73-1.36,1.6-2.96,2.59-4.8h8.09c-1.03,1.84-2.06,3.67-3.08,5.49s-2.03,3.6-3.02,5.33l-9.42,16.71h-6.94ZM106.99,286v-22.75h7.29v22.75h-7.29Z"/>
        <path class="st8" d="M143.91,286.74c-2.65,0-4.96-.44-6.94-1.33-1.98-.89-3.64-2.09-4.98-3.61-1.33-1.52-2.33-3.25-2.99-5.21-.66-1.95-.99-4-.99-6.15,0-3.08.62-5.82,1.86-8.23,1.24-2.41,3.04-4.31,5.39-5.7,2.36-1.4,5.2-2.09,8.52-2.09,2.54,0,4.79.4,6.76,1.21s3.61,1.94,4.94,3.39,2.34,3.16,3.02,5.1c.68,1.94,1.02,4.05,1.02,6.32,0,3.08-.62,5.85-1.86,8.31-1.24,2.46-3.03,4.41-5.38,5.84-2.35,1.44-5.14,2.15-8.39,2.15ZM143.88,281.16c1.98,0,3.64-.51,4.96-1.53,1.32-1.02,2.31-2.35,2.96-3.98.65-1.63.98-3.37.98-5.21,0-2.13-.37-3.97-1.1-5.53-.73-1.56-1.77-2.77-3.1-3.63-1.33-.86-2.91-1.29-4.73-1.29-1.96,0-3.62.46-4.98,1.38-1.35.92-2.38,2.17-3.07,3.75-.69,1.58-1.04,3.35-1.04,5.32,0,1.84.34,3.58,1.01,5.21.67,1.63,1.68,2.96,3.04,3.98,1.35,1.02,3.04,1.53,5.07,1.53Z"/>
        <path class="st8" d="M175.81,286.74c-3.2,0-5.58-.93-7.11-2.81-1.54-1.87-2.31-4.6-2.31-8.2v-20.55l6.63-.25v19.03c0,2.21.39,3.89,1.16,5.02.77,1.14,2.17,1.71,4.2,1.71,1.14,0,2.19-.24,3.16-.73.97-.49,1.85-1.14,2.65-1.95.8-.82,1.51-1.72,2.15-2.71v-20.12h6.63v30.81h-5.67l-.25-5.27h-.65c-.66.97-1.5,1.92-2.51,2.84-1.01.92-2.19,1.68-3.53,2.28-1.34.6-2.86.9-4.56.9Z"/>
        <path class="st8" d="M201.97,286v-30.81l5.67-.37.25,6.08h.62c.83-1.82,1.77-3.19,2.82-4.12,1.05-.93,2.13-1.55,3.22-1.88,1.1-.32,2.12-.48,3.07-.48.54,0,1.1.04,1.67.12.58.08,1.13.22,1.64.4l-.59,6.57c-.72-.12-1.38-.22-1.95-.28-.58-.06-1.24-.09-1.98-.09-.58,0-1.22.08-1.92.23-.7.16-1.41.47-2.12.95-.71.48-1.4,1.18-2.05,2.12s-1.22,2.18-1.72,3.7v17.86h-6.63Z"/>
        <path class="st8" d="M249.77,286.74c-2.89,0-5.3-.75-7.21-2.26-1.91-1.51-3.34-3.5-4.28-5.97-.94-2.47-1.41-5.14-1.41-8.01,0-3.04.5-5.78,1.5-8.21s2.47-4.36,4.42-5.77c1.94-1.4,4.3-2.11,7.07-2.11,1.34,0,2.58.18,3.72.53,1.14.35,2.14.84,3.01,1.46.87.62,1.59,1.32,2.17,2.11h.62v-17.89l6.63-.71v46.1h-5.7l-.37-4.15h-.56c-.79,1.05-1.66,1.94-2.62,2.67-.96.72-2.02,1.28-3.18,1.66-1.16.38-2.43.57-3.81.57ZM252.03,280.95c1.12,0,2.13-.18,3.04-.54.91-.36,1.72-.87,2.43-1.53s1.34-1.45,1.88-2.36v-12.52c-.56-.83-1.22-1.51-1.98-2.06-.76-.55-1.6-.96-2.51-1.24-.91-.28-1.84-.42-2.79-.42-1.9,0-3.47.47-4.71,1.4-1.24.93-2.17,2.17-2.79,3.74-.62,1.56-.93,3.28-.93,5.16s.29,3.49.88,5.07,1.5,2.86,2.73,3.84c1.23.98,2.82,1.47,4.76,1.47Z"/>
        <path class="st8" d="M278.2,248.92c-1.32,0-2.39-.35-3.21-1.04-.82-.69-1.22-1.78-1.22-3.27,0-1.38.41-2.44,1.22-3.16.82-.72,1.91-1.08,3.27-1.08s2.47.37,3.27,1.12c.8.74,1.19,1.79,1.19,3.13,0,1.49-.4,2.58-1.21,3.27s-1.91,1.04-3.32,1.04ZM274.97,286v-30.81l6.63-.22v31.03h-6.63Z"/>
        <path class="st8" d="M301.54,298.62c-2.29,0-4.22-.2-5.77-.6-1.55-.4-2.79-.95-3.7-1.64-.92-.69-1.57-1.47-1.95-2.32-.38-.86-.57-1.73-.57-2.62,0-1.38.33-2.54.99-3.46.66-.92,1.44-1.64,2.33-2.15.89-.52,1.65-.88,2.29-1.09v-.53c-.33-.1-.74-.33-1.22-.67-.49-.34-.92-.83-1.32-1.46-.39-.63-.59-1.42-.59-2.37,0-.7.13-1.36.39-1.98s.66-1.18,1.21-1.69c.55-.51,1.26-.95,2.12-1.32v-.53c-.52-.21-1.15-.55-1.89-1.02-.74-.48-1.47-1.09-2.19-1.86-.71-.76-1.31-1.71-1.8-2.82-.49-1.12-.73-2.43-.73-3.94,0-1.96.49-3.71,1.46-5.24.97-1.53,2.39-2.72,4.25-3.58,1.86-.86,4.11-1.29,6.76-1.29,1.03,0,1.94.05,2.73.15.79.1,1.6.21,2.45.33.85.11,1.89.17,3.13.17h9.15v4.77h-11.5l1.83-3.04c1.63.87,2.82,1.99,3.56,3.38.74,1.38,1.12,2.97,1.12,4.74,0,2.07-.43,3.81-1.29,5.22-.86,1.42-2.04,2.56-3.55,3.42-1.51.87-3.25,1.52-5.21,1.95-2,.48-3.49.89-4.45,1.26s-1.44.89-1.44,1.6c0,.5.21.88.62,1.15.41.27,1.05.46,1.92.59s2,.19,3.41.19h1.3c2.77,0,5.07.22,6.91.67,1.84.45,3.22,1.2,4.14,2.28.92,1.07,1.38,2.54,1.38,4.4s-.48,3.54-1.44,4.93-2.25,2.52-3.86,3.41c-1.61.89-3.37,1.54-5.27,1.97s-3.8.64-5.7.64ZM301.32,270.93c.64-.1,1.34-.26,2.11-.48.76-.22,1.49-.53,2.17-.95.68-.41,1.24-.95,1.67-1.61.43-.66.65-1.48.65-2.45,0-1.3-.33-2.36-.99-3.18-.66-.82-1.48-1.42-2.46-1.81s-1.97-.59-2.96-.59c-1.05,0-2.05.2-2.99.59-.94.39-1.72.98-2.33,1.77-.61.79-.91,1.75-.91,2.88s.29,2.08.87,2.88c.58.81,1.33,1.46,2.25,1.95.92.5,1.9.83,2.93.99ZM302.22,293.44c2.09,0,3.82-.27,5.21-.82s2.42-1.19,3.1-1.92,1.02-1.38,1.02-1.94c0-.66-.21-1.22-.62-1.67-.41-.46-1.19-.8-2.33-1.04-1.14-.24-2.78-.36-4.93-.36h-1.08c-1.1.04-2.18.24-3.25.6-1.07.36-1.97.85-2.68,1.46-.71.61-1.07,1.31-1.07,2.09,0,.46.12.9.36,1.33.24.43.62.82,1.15,1.16.53.34,1.21.61,2.06.81.85.2,1.87.29,3.07.29Z"/>
        <path class="st8" d="M328.39,248.92c-1.32,0-2.39-.35-3.21-1.04-.82-.69-1.22-1.78-1.22-3.27,0-1.38.41-2.44,1.22-3.16.82-.72,1.91-1.08,3.27-1.08s2.47.37,3.27,1.12c.8.74,1.19,1.79,1.19,3.13,0,1.49-.4,2.58-1.21,3.27s-1.91,1.04-3.32,1.04ZM325.16,286v-30.81l6.63-.22v31.03h-6.63Z"/>
        <path class="st8" d="M338.06,260.3v-5.12h22.38v5.12h-22.38ZM353.68,286.74c-2.13,0-3.94-.35-5.44-1.05-1.5-.7-2.63-1.8-3.41-3.29-.78-1.49-1.16-3.41-1.16-5.77v-31.46l6.54-1.3v30.94c0,2.11.42,3.69,1.27,4.76.85,1.06,2.17,1.6,3.97,1.6.74,0,1.54-.13,2.4-.39.86-.26,1.65-.66,2.37-1.19l.47,5.58c-.48.31-1.08.58-1.81.82-.73.24-1.55.42-2.45.56-.9.13-1.81.2-2.74.2Z"/>
        <path class="st8" d="M374.48,286.65c-1.76,0-3.33-.36-4.71-1.07-1.38-.71-2.48-1.75-3.27-3.1-.8-1.35-1.19-3-1.19-4.94,0-1.71.29-3.16.88-4.32.59-1.17,1.37-2.12,2.34-2.87.97-.74,2.06-1.32,3.25-1.74,1.2-.41,2.41-.71,3.63-.9l9.15-1.43c.08-1.72-.17-3.03-.76-3.94-.59-.91-1.42-1.53-2.48-1.86-1.06-.33-2.27-.5-3.61-.5-.7,0-1.46.05-2.28.16-.82.1-1.67.27-2.57.51-.9.24-1.84.53-2.82.87-.98.34-1.99.75-3.02,1.22l-.37-5.89c.76-.31,1.62-.61,2.57-.9.95-.29,1.98-.55,3.08-.79s2.25-.42,3.43-.54c1.18-.12,2.38-.19,3.6-.19,2.44,0,4.53.36,6.26,1.08s3.07,1.88,4,3.46,1.4,3.63,1.4,6.15v20.86h-5.98l-.37-4.09h-.59c-.6.76-1.35,1.51-2.25,2.23-.9.72-1.96,1.32-3.19,1.8-1.23.47-2.6.71-4.11.71ZM376.65,281.38c.99,0,1.97-.22,2.93-.67s1.85-1.08,2.68-1.91,1.54-1.83,2.14-3.01v-5.46c-.31.19-.71.36-1.19.53-.49.17-1.21.35-2.19.56-.97.21-2.34.46-4.09.78-1.01.17-1.88.46-2.6.9-.72.43-1.29,1-1.69,1.69-.4.69-.6,1.51-.6,2.46,0,1.51.46,2.57,1.38,3.19.92.62,2,.93,3.24.93Z"/>
        <path class="st8" d="M399.81,286v-45.38l6.63-.71v46.1h-6.63Z"/>
        <path class="st8" d="M427.83,298.12v-42.94l5.95-.37.19,4.09h.62c.6-.87,1.36-1.64,2.29-2.33.93-.68,1.99-1.21,3.18-1.6,1.19-.38,2.48-.57,3.89-.57,2.79,0,5.15.7,7.08,2.11,1.93,1.41,3.4,3.33,4.4,5.77s1.5,5.18,1.5,8.21c0,2.87-.47,5.54-1.41,8.01-.94,2.47-2.36,4.46-4.26,5.97-1.9,1.51-4.3,2.26-7.19,2.26-1.34,0-2.57-.18-3.67-.53-1.11-.35-2.11-.86-3.01-1.52s-1.71-1.46-2.43-2.39h-.5v15.59l-6.63.22ZM441.81,280.95c1.92,0,3.5-.49,4.74-1.47,1.24-.98,2.15-2.26,2.73-3.84.58-1.58.87-3.27.87-5.07s-.31-3.6-.91-5.16c-.61-1.56-1.53-2.81-2.77-3.74-1.24-.93-2.82-1.4-4.74-1.4-.95,0-1.88.14-2.77.42-.9.28-1.73.69-2.5,1.24-.77.55-1.43,1.24-1.98,2.06v12.52c.54.91,1.16,1.7,1.86,2.36.7.66,1.51,1.17,2.42,1.53.91.36,1.93.54,3.07.54Z"/>
        <path class="st8" d="M471.85,286.65c-1.76,0-3.33-.36-4.71-1.07-1.38-.71-2.48-1.75-3.27-3.1-.8-1.35-1.19-3-1.19-4.94,0-1.71.29-3.16.88-4.32.59-1.17,1.37-2.12,2.34-2.87.97-.74,2.06-1.32,3.25-1.74,1.2-.41,2.41-.71,3.63-.9l9.15-1.43c.08-1.72-.17-3.03-.76-3.94-.59-.91-1.42-1.53-2.48-1.86-1.06-.33-2.27-.5-3.61-.5-.7,0-1.46.05-2.28.16-.82.1-1.67.27-2.57.51-.9.24-1.84.53-2.82.87-.98.34-1.99.75-3.02,1.22l-.37-5.89c.76-.31,1.62-.61,2.57-.9.95-.29,1.98-.55,3.08-.79s2.25-.42,3.43-.54c1.18-.12,2.38-.19,3.6-.19,2.44,0,4.53.36,6.26,1.08s3.07,1.88,4,3.46,1.4,3.63,1.4,6.15v20.86h-5.98l-.37-4.09h-.59c-.6.76-1.35,1.51-2.25,2.23-.9.72-1.96,1.32-3.19,1.8-1.23.47-2.6.71-4.11.71ZM474.02,281.38c.99,0,1.97-.22,2.93-.67s1.85-1.08,2.68-1.91,1.54-1.83,2.14-3.01v-5.46c-.31.19-.71.36-1.19.53-.49.17-1.21.35-2.19.56-.97.21-2.34.46-4.09.78-1.01.17-1.88.46-2.6.9-.72.43-1.29,1-1.69,1.69-.4.69-.6,1.51-.6,2.46,0,1.51.46,2.57,1.38,3.19.92.62,2,.93,3.24.93Z"/>
        <path class="st8" d="M497.18,286v-30.81l5.67-.37.25,6.08h.62c.83-1.82,1.77-3.19,2.82-4.12,1.05-.93,2.13-1.55,3.22-1.88s2.12-.48,3.07-.48c.54,0,1.1.04,1.67.12.58.08,1.13.22,1.64.4l-.59,6.57c-.72-.12-1.38-.22-1.95-.28-.58-.06-1.24-.09-1.98-.09-.58,0-1.22.08-1.92.23-.7.16-1.41.47-2.12.95s-1.4,1.18-2.05,2.12-1.22,2.18-1.72,3.7v17.86h-6.63Z"/>
        <path class="st8" d="M518.82,260.3v-5.12h22.38v5.12h-22.38ZM534.44,286.74c-2.13,0-3.94-.35-5.44-1.05-1.5-.7-2.64-1.8-3.41-3.29-.78-1.49-1.16-3.41-1.16-5.77v-31.46l6.54-1.3v30.94c0,2.11.42,3.69,1.27,4.76.85,1.06,2.17,1.6,3.97,1.6.74,0,1.54-.13,2.4-.39.86-.26,1.65-.66,2.37-1.19l.46,5.58c-.48.31-1.08.58-1.81.82-.73.24-1.55.42-2.45.56-.9.13-1.81.2-2.74.2Z"/>
        <path class="st8" d="M547.92,286v-30.81l5.67-.37.25,5.58h.65c.66-.95,1.5-1.88,2.53-2.8,1.02-.92,2.22-1.68,3.58-2.28,1.36-.6,2.92-.9,4.68-.9,3.2,0,5.58.93,7.11,2.79,1.54,1.86,2.31,4.59,2.31,8.18v20.62h-6.63v-18.69c0-2.23-.38-3.92-1.15-5.05-.77-1.14-2.17-1.71-4.22-1.71-1.2,0-2.29.24-3.29.73-.99.49-1.89,1.14-2.7,1.95s-1.53,1.72-2.17,2.71v20.06h-6.63Z"/>
        <path class="st8" d="M598.05,286.71c-3.78,0-6.89-.7-9.33-2.11-2.44-1.41-4.24-3.33-5.41-5.77-1.17-2.44-1.75-5.24-1.75-8.4s.56-5.89,1.69-8.31,2.77-4.3,4.94-5.66c2.17-1.35,4.79-2.03,7.87-2.03,2.67,0,4.96.5,6.88,1.5,1.92,1,3.4,2.5,4.43,4.48,1.03,1.98,1.55,4.44,1.55,7.38,0,.79-.02,1.49-.05,2.12-.03.63-.1,1.25-.2,1.88l-5.8-2.54c.04-.31.07-.61.09-.91s.03-.58.03-.85c0-2.54-.64-4.51-1.91-5.91-1.27-1.4-2.93-2.09-4.98-2.09-1.59,0-2.98.43-4.15,1.3s-2.09,2.06-2.74,3.57c-.65,1.51-.98,3.24-.98,5.21v.99c0,2.19.38,4.07,1.13,5.64.75,1.57,1.91,2.78,3.47,3.63s3.53,1.27,5.91,1.27c.91,0,1.91-.08,2.99-.23,1.08-.15,2.17-.4,3.27-.73,1.1-.33,2.13-.75,3.1-1.27l.25,5.77c-.79.41-1.71.78-2.76,1.08-1.05.31-2.22.55-3.49.73-1.27.18-2.63.26-4.08.26ZM584.22,271.8v-4.53l20.49-.25,3.97,1.64v3.13h-24.46Z"/>
        <path class="st8" d="M616.25,286v-30.81l5.67-.37.25,6.08h.62c.83-1.82,1.77-3.19,2.82-4.12,1.05-.93,2.13-1.55,3.22-1.88,1.09-.32,2.12-.48,3.07-.48.54,0,1.1.04,1.67.12.58.08,1.13.22,1.64.4l-.59,6.57c-.72-.12-1.38-.22-1.95-.28-.58-.06-1.24-.09-1.98-.09-.58,0-1.22.08-1.92.23-.7.16-1.41.47-2.12.95s-1.4,1.18-2.05,2.12c-.65.94-1.22,2.18-1.72,3.7v17.86h-6.63Z"/>
      </g>
      <g class="st7">
        <path class="st8" d="M91.36,344.3v-5.12h21.95v5.12h-21.95ZM96.94,370v-34.47c0-2.29.31-4.2.93-5.72.62-1.52,1.47-2.72,2.56-3.6,1.08-.88,2.33-1.51,3.74-1.89,1.41-.38,2.89-.57,4.46-.57.81,0,1.59.04,2.36.11s1.46.18,2.08.33c.62.15,1.14.29,1.55.43l-.53,5.58c-.7-.25-1.43-.44-2.19-.59s-1.53-.22-2.34-.22c-2.15,0-3.73.52-4.73,1.55-1,1.03-1.5,2.6-1.5,4.71v3.53l.25,1.3v29.51h-6.63Z"/>
        <path class="st8" d="M132.13,370.74c-2.65,0-4.96-.44-6.94-1.33-1.98-.89-3.64-2.09-4.98-3.61-1.33-1.52-2.33-3.25-2.99-5.21-.66-1.95-.99-4-.99-6.15,0-3.08.62-5.82,1.86-8.23,1.24-2.41,3.04-4.31,5.39-5.7,2.36-1.4,5.2-2.09,8.52-2.09,2.54,0,4.79.4,6.76,1.21s3.61,1.94,4.94,3.39,2.34,3.16,3.02,5.1c.68,1.94,1.02,4.05,1.02,6.32,0,3.08-.62,5.85-1.86,8.31-1.24,2.46-3.03,4.41-5.38,5.84-2.35,1.44-5.14,2.15-8.39,2.15ZM132.1,365.16c1.98,0,3.64-.51,4.96-1.53,1.32-1.02,2.31-2.35,2.96-3.98.65-1.63.98-3.37.98-5.21,0-2.13-.37-3.97-1.1-5.53-.73-1.56-1.77-2.77-3.1-3.63-1.33-.86-2.91-1.29-4.73-1.29-1.96,0-3.62.46-4.98,1.38-1.35.92-2.38,2.17-3.07,3.75-.69,1.58-1.04,3.35-1.04,5.32,0,1.84.34,3.58,1.01,5.21.67,1.63,1.68,2.96,3.04,3.98,1.35,1.02,3.04,1.53,5.07,1.53Z"/>
        <path class="st8" d="M155.29,370v-30.81l5.67-.37.25,6.08h.62c.83-1.82,1.77-3.19,2.82-4.12,1.05-.93,2.13-1.55,3.22-1.88,1.1-.32,2.12-.48,3.07-.48.54,0,1.1.04,1.67.12.58.08,1.13.22,1.64.4l-.59,6.57c-.72-.12-1.38-.22-1.95-.28-.58-.06-1.24-.09-1.98-.09-.58,0-1.22.08-1.92.23-.7.16-1.41.47-2.12.95-.71.48-1.4,1.18-2.05,2.12s-1.22,2.18-1.72,3.7v17.86h-6.63Z"/>
        <path class="st8" d="M201.32,370.71c-1.34,0-2.67-.09-3.98-.28-1.31-.19-2.54-.45-3.69-.79s-2.15-.72-3.02-1.13l.5-6.01c.93.54,1.94,1.01,3.04,1.41,1.1.4,2.24.71,3.43.93,1.19.22,2.38.33,3.58.33.99,0,1.91-.1,2.74-.29.84-.2,1.51-.57,2.02-1.13.51-.56.76-1.38.76-2.48,0-.72-.24-1.32-.71-1.8-.48-.48-1.25-.9-2.32-1.29-1.08-.38-2.54-.83-4.4-1.35-1.72-.45-3.21-1.02-4.48-1.71s-2.26-1.59-2.96-2.73c-.7-1.14-1.05-2.63-1.05-4.49,0-3,.96-5.32,2.88-6.98s4.5-2.48,7.72-2.48c1.36,0,2.69.11,3.97.33,1.28.22,2.45.5,3.52.84,1.06.34,1.97.7,2.71,1.07l-.53,6.01c-.95-.6-1.98-1.1-3.08-1.5-1.11-.4-2.17-.7-3.18-.9-1.01-.2-1.87-.29-2.57-.29-.81,0-1.57.11-2.28.33-.71.22-1.29.59-1.72,1.12s-.65,1.24-.65,2.12c0,.7.17,1.3.5,1.8.33.5.94.95,1.81,1.36.88.41,2.15.85,3.83,1.3,2.09.6,3.86,1.23,5.32,1.89s2.56,1.53,3.3,2.6c.74,1.08,1.12,2.56,1.12,4.46s-.41,3.59-1.24,5.05c-.83,1.47-2.13,2.61-3.91,3.44-1.78.83-4.09,1.24-6.94,1.24Z"/>
        <path class="st8" d="M234.52,370.74c-2.65,0-4.96-.44-6.94-1.33-1.98-.89-3.64-2.09-4.98-3.61-1.33-1.52-2.33-3.25-2.99-5.21-.66-1.95-.99-4-.99-6.15,0-3.08.62-5.82,1.86-8.23,1.24-2.41,3.04-4.31,5.39-5.7,2.36-1.4,5.2-2.09,8.52-2.09,2.54,0,4.79.4,6.76,1.21s3.61,1.94,4.94,3.39,2.34,3.16,3.02,5.1c.68,1.94,1.02,4.05,1.02,6.32,0,3.08-.62,5.85-1.86,8.31-1.24,2.46-3.03,4.41-5.38,5.84-2.35,1.44-5.14,2.15-8.39,2.15ZM234.49,365.16c1.98,0,3.64-.51,4.96-1.53,1.32-1.02,2.31-2.35,2.96-3.98.65-1.63.98-3.37.98-5.21,0-2.13-.37-3.97-1.1-5.53-.73-1.56-1.77-2.77-3.1-3.63-1.33-.86-2.91-1.29-4.73-1.29-1.96,0-3.62.46-4.98,1.38-1.35.92-2.38,2.17-3.07,3.75-.69,1.58-1.04,3.35-1.04,5.32,0,1.84.34,3.58,1.01,5.21.67,1.63,1.68,2.96,3.04,3.98,1.35,1.02,3.04,1.53,5.07,1.53Z"/>
        <path class="st8" d="M271.57,370.62c-3.39,0-6.27-.7-8.63-2.09-2.37-1.39-4.17-3.3-5.41-5.72-1.24-2.42-1.86-5.16-1.86-8.21s.58-5.84,1.75-8.28c1.17-2.44,2.89-4.36,5.18-5.77,2.28-1.41,5.09-2.11,8.42-2.11,1.2,0,2.39.1,3.58.29,1.19.2,2.31.46,3.36.81,1.05.34,1.98.74,2.79,1.19l-.56,5.89c-1.16-.66-2.24-1.17-3.24-1.52-1-.35-1.93-.59-2.77-.73-.85-.13-1.62-.2-2.33-.2-2.85,0-5.14.93-6.85,2.77-1.72,1.85-2.57,4.35-2.57,7.49,0,2.03.39,3.83,1.18,5.42.79,1.59,1.96,2.85,3.52,3.78,1.56.93,3.5,1.4,5.81,1.4.85,0,1.69-.08,2.54-.23.85-.16,1.68-.39,2.5-.71s1.61-.73,2.37-1.22l.46,5.92c-.7.33-1.51.64-2.42.91-.91.28-1.93.5-3.07.67-1.14.17-2.39.25-3.75.25Z"/>
        <path class="st8" d="M291.47,332.92c-1.32,0-2.39-.35-3.21-1.04-.82-.69-1.22-1.78-1.22-3.27,0-1.38.41-2.44,1.22-3.16.82-.72,1.91-1.08,3.27-1.08s2.47.37,3.27,1.12c.8.74,1.19,1.79,1.19,3.13,0,1.49-.4,2.58-1.21,3.27s-1.91,1.04-3.32,1.04ZM288.24,370v-30.81l6.63-.22v31.03h-6.63Z"/>
        <path class="st8" d="M311.86,370.65c-1.76,0-3.33-.36-4.71-1.07-1.38-.71-2.48-1.75-3.27-3.1-.8-1.35-1.19-3-1.19-4.94,0-1.71.29-3.16.88-4.32.59-1.17,1.37-2.12,2.34-2.87.97-.74,2.06-1.32,3.25-1.74,1.2-.41,2.41-.71,3.63-.9l9.15-1.43c.08-1.72-.17-3.03-.76-3.94-.59-.91-1.42-1.53-2.48-1.86-1.06-.33-2.27-.5-3.61-.5-.7,0-1.46.05-2.28.16-.82.1-1.67.27-2.57.51-.9.24-1.84.53-2.82.87-.98.34-1.99.75-3.02,1.22l-.37-5.89c.76-.31,1.62-.61,2.57-.9.95-.29,1.98-.55,3.08-.79s2.25-.42,3.43-.54c1.18-.12,2.38-.19,3.6-.19,2.44,0,4.53.36,6.26,1.08s3.07,1.88,4,3.46,1.4,3.63,1.4,6.15v20.86h-5.98l-.37-4.09h-.59c-.6.76-1.35,1.51-2.25,2.23-.9.72-1.96,1.32-3.19,1.8-1.23.47-2.6.71-4.11.71ZM314.03,365.38c.99,0,1.97-.22,2.93-.67s1.85-1.08,2.68-1.91,1.54-1.83,2.14-3.01v-5.46c-.31.19-.71.36-1.19.53-.49.17-1.21.35-2.19.56-.97.21-2.34.46-4.09.78-1.01.17-1.88.46-2.6.9-.72.43-1.29,1-1.69,1.69-.4.69-.6,1.51-.6,2.46,0,1.51.46,2.57,1.38,3.19.92.62,2,.93,3.24.93Z"/>
        <path class="st8" d="M337.19,370v-45.38l6.63-.71v46.1h-6.63Z"/>
        <path class="st8" d="M368.56,332.92c-1.32,0-2.39-.35-3.21-1.04-.82-.69-1.22-1.78-1.22-3.27,0-1.38.41-2.44,1.22-3.16.82-.72,1.91-1.08,3.27-1.08s2.47.37,3.27,1.12c.8.74,1.19,1.79,1.19,3.13,0,1.49-.4,2.58-1.21,3.27s-1.91,1.04-3.32,1.04ZM365.34,370v-30.81l6.63-.22v31.03h-6.63Z"/>
        <path class="st8" d="M381.64,370v-30.81l5.67-.37.25,5.55h.65c.66-.95,1.48-1.88,2.45-2.79.97-.91,2.11-1.66,3.43-2.26,1.31-.6,2.81-.9,4.48-.9,2.48,0,4.39.62,5.72,1.84s2.21,2.99,2.62,5.29l.43.16c.1.56.18,1.14.23,1.75.05.61.08,1.26.08,1.94v20.62h-6.6v-18.69c0-2.23-.37-3.92-1.1-5.05-.73-1.14-2.06-1.71-3.98-1.71-1.14,0-2.17.25-3.1.74-.93.5-1.78,1.15-2.54,1.97-.77.82-1.45,1.71-2.05,2.68v20.06h-6.63ZM420.24,370v-18.69c0-2.23-.37-3.92-1.1-5.05-.73-1.14-2.05-1.71-3.95-1.71-1.14,0-2.18.24-3.12.73-.94.49-1.79,1.14-2.56,1.95-.77.82-1.46,1.72-2.08,2.71l-.96-5.49h.65c.72-.97,1.59-1.92,2.59-2.85,1-.93,2.17-1.69,3.52-2.29,1.34-.6,2.86-.9,4.56-.9,3.16,0,5.47.95,6.91,2.85,1.45,1.9,2.17,4.61,2.17,8.12v20.62h-6.63Z"/>
        <path class="st8" d="M435.74,382.12v-42.94l5.95-.37.19,4.09h.62c.6-.87,1.36-1.64,2.29-2.33.93-.68,1.99-1.21,3.18-1.6,1.19-.38,2.48-.57,3.89-.57,2.79,0,5.15.7,7.08,2.11,1.93,1.41,3.4,3.33,4.4,5.77s1.5,5.18,1.5,8.21c0,2.87-.47,5.54-1.41,8.01-.94,2.47-2.36,4.46-4.26,5.97-1.9,1.51-4.3,2.26-7.19,2.26-1.34,0-2.57-.18-3.67-.53-1.11-.35-2.11-.86-3.01-1.52s-1.71-1.46-2.43-2.39h-.5v15.59l-6.63.22ZM449.72,364.95c1.92,0,3.5-.49,4.74-1.47,1.24-.98,2.15-2.26,2.73-3.84.58-1.58.87-3.27.87-5.07s-.31-3.6-.91-5.16c-.61-1.56-1.53-2.81-2.77-3.74-1.24-.93-2.82-1.4-4.74-1.4-.95,0-1.88.14-2.77.42-.9.28-1.73.69-2.5,1.24-.77.55-1.43,1.24-1.98,2.06v12.52c.54.91,1.16,1.7,1.86,2.36.7.66,1.51,1.17,2.42,1.53.91.36,1.93.54,3.07.54Z"/>
        <path class="st8" d="M479.76,370.65c-1.76,0-3.33-.36-4.71-1.07-1.38-.71-2.48-1.75-3.27-3.1-.8-1.35-1.19-3-1.19-4.94,0-1.71.29-3.16.88-4.32.59-1.17,1.37-2.12,2.34-2.87.97-.74,2.06-1.32,3.25-1.74,1.2-.41,2.41-.71,3.63-.9l9.15-1.43c.08-1.72-.17-3.03-.76-3.94-.59-.91-1.42-1.53-2.48-1.86-1.06-.33-2.27-.5-3.61-.5-.7,0-1.46.05-2.28.16-.82.1-1.67.27-2.57.51-.9.24-1.84.53-2.82.87-.98.34-1.99.75-3.02,1.22l-.37-5.89c.76-.31,1.62-.61,2.57-.9.95-.29,1.98-.55,3.08-.79s2.25-.42,3.43-.54c1.18-.12,2.38-.19,3.6-.19,2.44,0,4.53.36,6.26,1.08s3.07,1.88,4,3.46,1.4,3.63,1.4,6.15v20.86h-5.98l-.37-4.09h-.59c-.6.76-1.35,1.51-2.25,2.23-.9.72-1.96,1.32-3.19,1.8-1.23.47-2.6.71-4.11.71ZM481.93,365.38c.99,0,1.97-.22,2.93-.67s1.85-1.08,2.68-1.91,1.54-1.83,2.14-3.01v-5.46c-.31.19-.71.36-1.19.53-.49.17-1.21.35-2.19.56-.97.21-2.34.46-4.09.78-1.01.17-1.88.46-2.6.9-.72.43-1.29,1-1.69,1.69-.4.69-.6,1.51-.6,2.46,0,1.51.46,2.57,1.38,3.19.92.62,2,.93,3.24.93Z"/>
        <path class="st8" d="M518.97,370.62c-3.39,0-6.27-.7-8.63-2.09-2.37-1.39-4.17-3.3-5.41-5.72-1.24-2.42-1.86-5.16-1.86-8.21s.58-5.84,1.75-8.28c1.17-2.44,2.89-4.36,5.18-5.77,2.28-1.41,5.09-2.11,8.42-2.11,1.2,0,2.39.1,3.58.29,1.19.2,2.31.46,3.36.81,1.05.34,1.98.74,2.79,1.19l-.56,5.89c-1.16-.66-2.24-1.17-3.24-1.52s-1.93-.59-2.78-.73c-.85-.13-1.62-.2-2.32-.2-2.85,0-5.14.93-6.85,2.77-1.71,1.85-2.57,4.35-2.57,7.49,0,2.03.39,3.83,1.18,5.42s1.96,2.85,3.52,3.78c1.56.93,3.5,1.4,5.81,1.4.85,0,1.69-.08,2.54-.23s1.68-.39,2.5-.71,1.61-.73,2.37-1.22l.46,5.92c-.7.33-1.51.64-2.42.91-.91.28-1.93.5-3.07.67-1.14.17-2.39.25-3.75.25Z"/>
        <path class="st8" d="M532.12,344.3v-5.12h22.38v5.12h-22.38ZM547.74,370.74c-2.13,0-3.94-.35-5.44-1.05-1.5-.7-2.64-1.8-3.41-3.29-.78-1.49-1.16-3.41-1.16-5.77v-31.46l6.54-1.3v30.94c0,2.11.42,3.69,1.27,4.76.85,1.06,2.17,1.6,3.97,1.6.74,0,1.54-.13,2.4-.39.86-.26,1.65-.66,2.37-1.19l.46,5.58c-.48.31-1.08.58-1.81.82-.73.24-1.55.42-2.45.56-.9.13-1.81.2-2.74.2Z"/>
      </g>
      <g class="st7">
        <path class="st1" d="M564.08,370.74c-.97,0-1.81-.2-2.51-.6-.7-.4-1.25-.95-1.63-1.64-.38-.69-.57-1.49-.57-2.4,0-1.36.43-2.46,1.29-3.29.86-.83,2.01-1.24,3.46-1.24.97,0,1.81.19,2.51.57.7.38,1.24.91,1.61,1.6.37.68.56,1.47.56,2.36,0,1.34-.41,2.45-1.24,3.33-.83.88-1.98,1.32-3.47,1.32Z"/>
      </g>
    </g>
    <g id="Group_13876">
      <path id="Rectangle_20632" class="st10" d="M127.5,426h161c20.71,0,37.5,16.79,37.5,37.5h0c0,20.71-16.79,37.5-37.5,37.5H127.5c-20.71,0-37.5-16.79-37.5-37.5h0c0-20.71,16.79-37.5,37.5-37.5Z"/>
      <g id="Group_13875">
        <g id="Group_10217">
          <g id="Path_1630">
            <path class="st0" d="M290,445c11.05,0,20,8.95,20,20s-8.95,20-20,20-20-8.95-20-20,8.95-20,20-20Z"/>
            <path class="st1" d="M290,446c-2.57,0-5.05.5-7.4,1.49-2.26.96-4.29,2.33-6.04,4.07-1.75,1.75-3.12,3.78-4.07,6.04-.99,2.34-1.49,4.83-1.49,7.4s.5,5.05,1.49,7.4c.96,2.26,2.33,4.29,4.07,6.04,1.75,1.75,3.78,3.12,6.04,4.07,2.34.99,4.83,1.49,7.4,1.49s5.05-.5,7.4-1.49c2.26-.96,4.29-2.33,6.04-4.07,1.75-1.75,3.12-3.78,4.07-6.04.99-2.34,1.49-4.83,1.49-7.4s-.5-5.05-1.49-7.4c-.96-2.26-2.33-4.29-4.07-6.04-1.75-1.75-3.78-3.12-6.04-4.07-2.34-.99-4.83-1.49-7.4-1.49M290,445c11.05,0,20,8.95,20,20s-8.95,20-20,20-20-8.95-20-20,8.95-20,20-20Z"/>
          </g>
          <path id="arrow-right-light" class="st8" d="M297.49,465.39c.21-.22.21-.56,0-.78l-6.07-6.07c-.22-.21-.57-.19-.78.03-.19.21-.19.54,0,.75l5.13,5.13h-13.03c-.3-.03-.57.2-.6.5-.03.3.2.57.5.6.03,0,.06,0,.09,0h13.02l-5.13,5.14c-.22.21-.24.56-.03.78.21.22.56.24.78.03.01-.01.02-.02.03-.03l6.08-6.07Z"/>
        </g>
        <g id="See_more" class="st7">
          <g class="st7">
            <path class="st8" d="M128.98,473.33c-.89,0-1.79-.08-2.69-.25-.91-.16-1.74-.37-2.5-.61s-1.38-.49-1.85-.74l.25-2.56c.67.37,1.37.69,2.09.97.72.27,1.46.49,2.22.64.75.15,1.53.23,2.32.23.89,0,1.69-.12,2.41-.37.71-.24,1.28-.63,1.69-1.17.42-.53.62-1.24.62-2.11,0-.76-.21-1.39-.65-1.88-.43-.5-1.05-.92-1.87-1.28-.82-.36-1.8-.72-2.96-1.08-1.36-.43-2.52-.89-3.48-1.39s-1.69-1.12-2.2-1.85c-.51-.74-.76-1.67-.76-2.81s.26-2.1.79-2.99c.52-.88,1.31-1.57,2.35-2.08s2.33-.76,3.87-.76c.64,0,1.27.04,1.9.14.62.09,1.22.21,1.79.37.57.16,1.09.33,1.56.52.47.19.87.38,1.2.58l-.27,2.58c-.61-.41-1.25-.75-1.94-1.03-.68-.28-1.35-.48-2.02-.62s-1.29-.2-1.86-.2c-.81,0-1.56.12-2.23.36-.68.24-1.23.61-1.64,1.1-.42.5-.62,1.13-.62,1.91,0,.68.17,1.25.52,1.7s.9.85,1.66,1.21c.75.35,1.73.72,2.92,1.1,1.72.54,3.07,1.09,4.06,1.64.98.56,1.68,1.2,2.1,1.93.42.73.62,1.62.62,2.69,0,1.17-.26,2.21-.77,3.13s-1.32,1.65-2.41,2.19c-1.09.54-2.5.81-4.22.81Z"/>
            <path class="st8" d="M146.89,473.33c-1.78,0-3.25-.34-4.4-1.02-1.15-.68-2-1.61-2.56-2.79-.56-1.18-.84-2.53-.84-4.05s.27-2.83.83-3.99c.55-1.16,1.34-2.07,2.37-2.72,1.03-.66,2.26-.98,3.69-.98,1.26,0,2.34.25,3.25.73.91.49,1.6,1.21,2.09,2.15.49.95.73,2.11.73,3.5,0,.37,0,.7-.02,1-.02.3-.05.59-.1.89l-2.17-1.09c.02-.16.03-.31.04-.46,0-.15,0-.29,0-.43,0-1.41-.35-2.48-1.05-3.22-.7-.74-1.62-1.1-2.75-1.1-.91,0-1.69.23-2.35.7-.65.47-1.16,1.11-1.52,1.93-.36.82-.54,1.75-.54,2.8v.35c0,1.16.2,2.16.6,3s1.01,1.49,1.82,1.94c.81.46,1.85.68,3.11.68.47,0,.97-.04,1.49-.11.52-.08,1.04-.19,1.56-.35.52-.16,1.01-.37,1.48-.63l.1,2.24c-.38.21-.82.39-1.32.55s-1.05.27-1.65.36-1.24.13-1.91.13ZM140.13,466.05v-1.77l10.29-.09,1.51.57v1.29h-11.8Z"/>
            <path class="st8" d="M162.72,473.33c-1.78,0-3.25-.34-4.4-1.02-1.15-.68-2-1.61-2.56-2.79-.56-1.18-.84-2.53-.84-4.05s.27-2.83.83-3.99c.55-1.16,1.34-2.07,2.37-2.72,1.03-.66,2.26-.98,3.69-.98,1.26,0,2.34.25,3.25.73.91.49,1.6,1.21,2.09,2.15.49.95.73,2.11.73,3.5,0,.37,0,.7-.02,1-.02.3-.05.59-.1.89l-2.17-1.09c.02-.16.03-.31.04-.46,0-.15,0-.29,0-.43,0-1.41-.35-2.48-1.05-3.22-.7-.74-1.62-1.1-2.75-1.1-.91,0-1.69.23-2.35.7-.65.47-1.16,1.11-1.52,1.93-.36.82-.54,1.75-.54,2.8v.35c0,1.16.2,2.16.6,3s1.01,1.49,1.82,1.94c.81.46,1.85.68,3.11.68.47,0,.97-.04,1.49-.11.52-.08,1.04-.19,1.56-.35.52-.16,1.01-.37,1.48-.63l.1,2.24c-.38.21-.82.39-1.32.55s-1.05.27-1.65.36-1.24.13-1.91.13ZM155.95,466.05v-1.77l10.29-.09,1.51.57v1.29h-11.8Z"/>
            <path class="st8" d="M177.57,473v-14.88l2.16-.15.07,2.73h.27c.31-.44.7-.89,1.18-1.34.47-.46,1.04-.83,1.69-1.14.65-.31,1.4-.46,2.23-.46,1.22,0,2.16.3,2.81.91.65.6,1.08,1.47,1.28,2.6l.15.09c.04.27.07.55.1.83s.04.58.04.89v9.92h-2.48v-9.29c0-1.19-.2-2.09-.6-2.7-.4-.61-1.12-.92-2.18-.92-.64,0-1.22.14-1.73.41s-.98.64-1.4,1.09-.79.95-1.13,1.49v9.9h-2.48ZM196.47,473v-9.29c0-1.19-.2-2.09-.6-2.7-.4-.61-1.12-.92-2.17-.92-.63,0-1.2.14-1.72.41-.52.27-.98.63-1.41,1.09-.43.46-.8.96-1.13,1.51l-.36-2.34h.27c.34-.46.76-.92,1.25-1.39.5-.46,1.07-.85,1.73-1.15.66-.31,1.41-.46,2.25-.46,1.56,0,2.68.46,3.35,1.4.68.93,1.01,2.24,1.01,3.93v9.92h-2.48Z"/>
            <path class="st8" d="M210.18,473.33c-1.23,0-2.31-.21-3.25-.64s-1.72-1-2.35-1.73c-.63-.73-1.11-1.57-1.43-2.51-.32-.94-.49-1.94-.49-2.98,0-1.49.3-2.81.91-3.97.6-1.16,1.46-2.07,2.58-2.74,1.12-.67,2.44-1,3.98-1,1.19,0,2.24.2,3.16.58.92.39,1.7.94,2.34,1.64.64.7,1.12,1.52,1.46,2.45.33.93.49,1.95.49,3.04,0,1.47-.3,2.8-.9,3.99-.6,1.19-1.45,2.13-2.56,2.83-1.1.7-2.42,1.04-3.95,1.04ZM210.18,471.17c1.09,0,1.99-.27,2.71-.81s1.26-1.25,1.62-2.12.54-1.79.54-2.78c0-1.12-.2-2.09-.6-2.92s-.97-1.47-1.69-1.93c-.73-.46-1.6-.69-2.6-.69-1.08,0-1.99.25-2.73.74-.74.49-1.3,1.15-1.67,2-.38.84-.56,1.78-.56,2.82,0,.98.18,1.91.55,2.78.36.87.92,1.58,1.66,2.12.74.54,1.66.81,2.77.81Z"/>
            <path class="st8" d="M221.67,473v-14.88l2.16-.15.07,3.03h.25c.41-.91.88-1.6,1.42-2.06.54-.46,1.08-.78,1.63-.94.55-.16,1.05-.24,1.51-.24.28,0,.56.02.84.06.28.04.54.1.79.19l-.23,2.49c-.33-.06-.63-.11-.89-.15-.27-.04-.57-.06-.92-.06-.29,0-.62.04-.98.13-.37.08-.74.26-1.12.52-.39.27-.76.66-1.12,1.19-.36.52-.67,1.22-.94,2.09v8.78h-2.48Z"/>
            <path class="st8" d="M239.85,473.33c-1.78,0-3.25-.34-4.4-1.02-1.15-.68-2-1.61-2.56-2.79-.56-1.18-.84-2.53-.84-4.05s.27-2.83.83-3.99c.55-1.16,1.34-2.07,2.37-2.72,1.03-.66,2.26-.98,3.69-.98,1.26,0,2.34.25,3.25.73.91.49,1.6,1.21,2.09,2.15.49.95.73,2.11.73,3.5,0,.37,0,.7-.02,1-.02.3-.05.59-.1.89l-2.17-1.09c.02-.16.03-.31.04-.46,0-.15,0-.29,0-.43,0-1.41-.35-2.48-1.05-3.22-.7-.74-1.62-1.1-2.75-1.1-.91,0-1.69.23-2.35.7-.65.47-1.16,1.11-1.52,1.93-.36.82-.54,1.75-.54,2.8v.35c0,1.16.2,2.16.6,3s1.01,1.49,1.82,1.94c.81.46,1.85.68,3.11.68.47,0,.97-.04,1.49-.11.52-.08,1.04-.19,1.56-.35.52-.16,1.01-.37,1.48-.63l.1,2.24c-.38.21-.82.39-1.32.55s-1.05.27-1.65.36-1.24.13-1.91.13ZM233.08,466.05v-1.77l10.29-.09,1.51.57v1.29h-11.8Z"/>
          </g>
        </g>
      </g>
    </g>
    <path id="Path_2654" class="st2" d="M996.39,129.18l3.77,9.6c8.52,23.3,12.87,47.91,12.84,72.72V0h-211.5c85.02,0,161.78,50.88,194.89,129.18"/>
    <path id="Path_2655" class="st2" d="M883.82,406.14l-9.6,3.77c-23.3,8.52-47.91,12.87-72.72,12.84h211.5v-211.5c0,85.02-50.88,161.78-129.18,194.89"/>
    <path id="Path_2656" class="st2" d="M883.82,617.39l-9.6,3.77c-23.3,8.52-47.91,12.87-72.72,12.84h211.5v-211.5c0,85.02-50.88,161.78-129.18,194.89"/>
  </g>
</svg>