<svg xmlns="http://www.w3.org/2000/svg" xmlns:xlink="http://www.w3.org/1999/xlink" width="1692" height="297" viewBox="0 0 1692 297">
  <defs>
    <clipPath id="clip-path">
      <rect id="Rectangle_1567" data-name="Rectangle 1567" width="96.952" height="98.453" fill="#02827b"/>
    </clipPath>
    <clipPath id="clip-FINAL_-_Small_banner_V1">
      <rect width="1692" height="297"/>
    </clipPath>
  </defs>
  <g id="FINAL_-_Small_banner_V1" data-name="FINAL - Small banner V1" clip-path="url(#clip-FINAL_-_Small_banner_V1)">
    <rect width="1692" height="297" fill="#0e615b"/>
    <path id="Rectangle_1563" data-name="Rectangle 1563" d="M0,0H1246a0,0,0,0,1,0,0V207a90,90,0,0,1-90,90H0a0,0,0,0,1,0,0V0A0,0,0,0,1,0,0Z" fill="#02827b"/>
    <g id="Group_10395" data-name="Group 10395" transform="translate(-299.006)">
      <path id="Path_2550" data-name="Path 2550" d="M131.543,174.64a98.987,98.987,0,0,1,91.18,60.439l1.765,4.491a98.669,98.669,0,0,1,6.006,34.022V174.64Z" transform="translate(-131.443 -174.554)" fill="#01827b" fill-rule="evenodd"/>
      <path id="Path_2551" data-name="Path 2551" d="M757.932,239.345l-1.766-4.493a99.041,99.041,0,0,0-91.233-60.474H566.02v-.029H467.011v.114c53.626,0,97.983,43.608,98.879,97.207v1.716H566v-.029h.016V271.7c.9-53.593,45.241-97.2,98.856-97.208a98.923,98.923,0,0,0,93.99,98.827H664.872v.057h0a99.006,99.006,0,0,1-98.895,98.895v.115h99.009a98.925,98.925,0,0,0,98.953-98.941l0-.057a98.611,98.611,0,0,0-6.01-34.043m4.533,34.032Z" transform="translate(-367.984 -174.35)" fill="#20cec7"/>
      <path id="Path_2552" data-name="Path 2552" d="M222.639,234.921h0a99.043,99.043,0,0,0-91.233-60.474h-.057v.057a98.925,98.925,0,0,0,99.009,99.009h.057v-.057a98.611,98.611,0,0,0-6.01-34.043Z" transform="translate(-131.306 -174.418)" fill="#20cec7"/>
      <path id="Path_2553" data-name="Path 2553" d="M428.089,372.272v.012A98.922,98.922,0,0,0,329.177,467.6a98.916,98.916,0,0,0-94.134-95.2h94.21v-.013A98.924,98.924,0,0,0,428.2,273.376v-.057h-.029V174.378h-.057a98.922,98.922,0,0,0-98.943,95.367A98.921,98.921,0,0,0,230.23,174.35h-.057v98.969h-1.337c-53.748-.756-97.475-45.115-97.475-98.884h-.114v98.884H131.2v.057a98.917,98.917,0,0,0,94.23,98.9H131.2v.057a98.923,98.923,0,0,0,98.976,99.009v.012h198v-.012a98.923,98.923,0,0,0,98.98-99.009v-.057Z" transform="translate(-131.203 -174.35)" fill="#01827b"/>
      <path id="Path_2554" data-name="Path 2554" d="M1237.12,273.592v0a98.949,98.949,0,0,1-98.948-98.952v98.952h98.948a98.949,98.949,0,0,1-98.952,98.941h98.952V273.592h0" transform="translate(-841.223 -174.554)" fill="#0aafa8" fill-rule="evenodd"/>
      <path id="Path_2555" data-name="Path 2555" d="M1229.362,235.079l1.765,4.491a98.668,98.668,0,0,1,6.007,34.022V174.64h-98.952a98.986,98.986,0,0,1,91.18,60.439" transform="translate(-841.233 -174.554)" fill="#0dafa8" fill-rule="evenodd"/>
      <path id="Path_2556" data-name="Path 2556" d="M565.962,845.755H467.033a98.948,98.948,0,0,1,98.929,96.922v2.03q0-.722.011-1.442.01.72.011,1.442v-2.03a98.948,98.948,0,0,1,98.929-96.922H565.962Z" transform="translate(-368 -647.764)" fill="#0aafa8" fill-rule="evenodd"/>
      <path id="Path_2557" data-name="Path 2557" d="M131.4,845.715v98.952h98.952A98.949,98.949,0,0,1,131.4,845.715" transform="translate(-131.339 -647.736)" fill="#0aafa8" fill-rule="evenodd"/>
      <path id="Path_2558" data-name="Path 2558" d="M131.4,510.157v98.952h98.952A98.949,98.949,0,0,1,131.4,510.157" transform="translate(-131.339 -411.131)" fill="#0aafa8" fill-rule="evenodd"/>
      <path id="Path_2559" data-name="Path 2559" d="M1138.162,944.667h98.952V845.715a98.949,98.949,0,0,1-98.952,98.952" transform="translate(-841.219 -647.736)" fill="#0aafa8" fill-rule="evenodd"/>
      <path id="Path_2560" data-name="Path 2560" d="M398.16,391.856a49.476,49.476,0,1,0-49.476,49.476,49.476,49.476,0,0,0,49.476-49.476" transform="translate(-249.664 -292.829)" fill="#0aafa8" fill-rule="evenodd"/>
    </g>
    <text id="Where_digital_innovation_meets_social_impact." data-name="Where digital innovation
meets social impact." transform="translate(612 132)" fill="#fff" font-size="46" font-family="Commissioner-Medium, Commissioner" font-weight="500"><tspan x="0" y="0">Where digital innovation</tspan><tspan x="0" y="60">meets social impact</tspan><tspan y="60" fill="#1be3d9">.</tspan></text>
    <g id="logo-yard-da" transform="translate(196.691 92.097)">
      <path id="Path_1" d="M50.781,73.9,49.5,72.951q-1.011-1.723-1.011-17.075V50.684a17.7,17.7,0,0,1,.337-3.92c.413-1.715,2.588-5.636,6.555-11.777q10.544-16.333,19.4-27.6V5.552l-.567-.521H66.034c-1.149,2.021-2.067,3.614-2.741,4.763L57.076,20.208q-9.3,15.023-12.619,20L37.106,26.5Q29.089,11.479,24.318,7.13a19.45,19.45,0,0,0-5.207-3.4Q15.229,4.787,1.561,7.3L1.01,7.88v2.925l.613.582a15.452,15.452,0,0,1,4.2.337,14.945,14.945,0,0,1,3.476,2.8Q14.624,19.6,23.6,33.792,32.4,47.736,32.4,49.719V55.89c0,10.23-.337,15.912-1.011,17.075l-1.286.934a49.552,49.552,0,0,1-6.891.689l-.551.521v3.568l.505.475q5.26-.322,17.275-.322,11.715,0,17.275.322l.551-.536V75.11l-.551-.521a49.533,49.533,0,0,1-6.891-.674" transform="translate(-1.01 -0.82)" fill="#fff"/>
      <path id="Path_2" d="M72.383,58.03a10.383,10.383,0,0,1-9.02,4.916q-6.662,0-6.662-7.121a7.478,7.478,0,0,1,3.216-6.631c2.159-1.44,6.309-2.8,12.481-4.058V58.015h0Zm60.491-28.745.4-9.311a11.354,11.354,0,0,0-3.982-.628,9.008,9.008,0,0,0-6.279,2.1q-4.939,5.031-8.408,8.79l.123-10.261-1.24-.674a102.559,102.559,0,0,1-21.241,4.334l-.551.582v2.94l.551.521c2.8.107,4.426.2,4.87.26a3.013,3.013,0,0,1,2.42,1.3q.85,1.585.842,12.052V48.78q0,7.81-.383,14.61c-.077,1.363-.49,2.205-1.225,2.512a21.856,21.856,0,0,1-6.677.781l-.046.046a12.955,12.955,0,0,1-4.594-.659,3.446,3.446,0,0,1-1.317-2.757c-.184-1.455-.291-4.809-.291-10.077q0-2.458.291-9.786c.107-2.94.168-5.069.168-6.386q0-8.109-3.43-12.037-4.709-5.4-15.758-5.391a28.479,28.479,0,0,0-5.1.368q-4.663.827-13.905,7.228L47.834,33.4l.383.735,2.864.628.735-.368,2.129-4.87a12.23,12.23,0,0,1,6.891-1.669,13.1,13.1,0,0,1,6.845,1.731Q72.391,32.417,72.4,40.74q-18.147,2.986-24.166,6.708c-3.706,2.267-5.544,6.126-5.544,11.578A13.436,13.436,0,0,0,46.027,68.7a12.572,12.572,0,0,0,9.556,3.522,21.645,21.645,0,0,0,2.236-.107,7.791,7.791,0,0,0,3.706-1.1L72.4,63.267l-.505,7.014.505.582q4.365-.253,9.143-.26,5.835,0,10.414.245l.138.123q5.283-.368,15.314-.368,8.132,0,16.371.322l.551-.536v-3.2l-.551-.475c-4.487-.138-7.09-.4-7.795-.781A2.8,2.8,0,0,1,114.8,63.42c-.26-4.533-.4-8.086-.4-10.628V40.541a8.51,8.51,0,0,1,1.685-5.712,8.834,8.834,0,0,1,6.953-3.139,8.547,8.547,0,0,1,7.29,3.568l2.358-.674c.107-1.96.184-3.691.23-5.237" transform="translate(21.126 7.454)" fill="#fff"/>
      <path id="Path_3" d="M140.411,52.352q0,11.463-.168,12.205a7.952,7.952,0,0,1-3.645,4.5,12.8,12.8,0,0,1-7.4,2.358,10.6,10.6,0,0,1-7.688-2.772q-5.421-5.237-5.437-16.08a31.861,31.861,0,0,1,1.225-9.219,9.516,9.516,0,0,1,9.97-7.427,17.465,17.465,0,0,1,5.391.842A19.43,19.43,0,0,1,140.4,42.52v9.847h0ZM162,76.319a34.577,34.577,0,0,1-5.605-.674,1.972,1.972,0,0,1-1.24-1.1q-.735-1.47-.735-16.172V41.463q0-22.558.505-33.829c.153-3.323.23-5.038.23-5.176l-1.24-.628a112.593,112.593,0,0,1-21.7,4.349l-.567.582V9.64l.567.582c2.833.107,4.564.214,5.161.322a2.511,2.511,0,0,1,2.3,1.669c.49,1.639.735,7.06.735,16.233v2.94a26.077,26.077,0,0,0-10.873-2.312,19.139,19.139,0,0,0-6.83,1.041,60.985,60.985,0,0,0-9.816,5.712,37.069,37.069,0,0,0-6.953,5.391q-4.548,5.812-4.548,16.233,0,10.728,5.881,17.489a19.589,19.589,0,0,0,15.467,6.754,15.61,15.61,0,0,0,5.819-.781,51.108,51.108,0,0,0,6.064-4.824c2.512-2.159,4.426-3.767,5.773-4.809q0,6.019-.23,8.591l.505.368c4.793-.245,8.576-.368,11.379-.368q4.433,0,9.924.368l.567-.521V76.885L162,76.349Z" transform="translate(52.335 -1.83)" fill="#fff"/>
      <path id="Path_4" d="M39.149,70.933a5.074,5.074,0,0,0-1.394-3.89,5.7,5.7,0,0,0-4.074-1.3H31.338V76.293h2.113c3.8,0,5.712-1.792,5.7-5.36m.965-.046a5.91,5.91,0,0,1-1.685,4.579A7.028,7.028,0,0,1,33.5,77.013H30.45V64.976H33.9a6.486,6.486,0,0,1,4.64,1.5,5.834,5.834,0,0,1,1.593,4.4" transform="translate(14.635 31.718)" fill="#fff"/>
      <path id="Path_5" d="M41.06,77.081H40.2V68.122h.858Zm-.98-11.44c0-.536.184-.781.551-.781a.57.57,0,0,1,.429.2.98.98,0,0,1,.153.582,1.1,1.1,0,0,1-.153.582.516.516,0,0,1-.429.214c-.368,0-.551-.26-.551-.8" transform="translate(19.753 31.666)" fill="#fff"/>
      <path id="Path_6" d="M45.284,69.853a2.052,2.052,0,0,0,.659,1.608,3.106,3.106,0,0,0,3.6,0,2.092,2.092,0,0,0,.628-1.654,2.161,2.161,0,0,0-.643-1.715,2.621,2.621,0,0,0-1.822-.567,2.453,2.453,0,0,0-1.776.613,2.215,2.215,0,0,0-.643,1.715m-.72,7.672q0,1.838,2.894,1.838,3.721,0,3.721-2.251a1.267,1.267,0,0,0-.582-1.164,3.676,3.676,0,0,0-1.9-.368H47.152c-1.731,0-2.6.643-2.6,1.93m7.672-10.46v.567l-1.96.107a3.013,3.013,0,0,1,.781,2.021,2.665,2.665,0,0,1-.9,2.1,3.556,3.556,0,0,1-2.45.8,5.857,5.857,0,0,1-.9-.046,2.133,2.133,0,0,0-.781.6,1.238,1.238,0,0,0-.276.735.683.683,0,0,0,.337.628,2.5,2.5,0,0,0,1.149.2h1.654a4.1,4.1,0,0,1,2.358.582,2.034,2.034,0,0,1,.827,1.746,2.477,2.477,0,0,1-1.21,2.19,6.459,6.459,0,0,1-3.461.766,5.012,5.012,0,0,1-2.772-.643,2.058,2.058,0,0,1-.98-1.807,2.179,2.179,0,0,1,.613-1.531,3.22,3.22,0,0,1,1.639-.827,1.781,1.781,0,0,1-.674-.49,1.134,1.134,0,0,1-.26-.735c0-.6.4-1.118,1.21-1.577a2.709,2.709,0,0,1-1.286-1.011,2.972,2.972,0,0,1,.444-3.721,3.506,3.506,0,0,1,2.435-.812,5.011,5.011,0,0,1,1.44.168h3.032Z" transform="translate(21.639 32.738)" fill="#fff"/>
      <path id="Path_7" d="M53.04,77.081h-.858V68.122h.858Zm-.98-11.44c0-.536.184-.781.551-.781a.516.516,0,0,1,.413.2.98.98,0,0,1,.153.582,1.1,1.1,0,0,1-.153.582.488.488,0,0,1-.413.214c-.368,0-.551-.26-.551-.8" transform="translate(26.119 31.666)" fill="#fff"/>
      <path id="Path_8" d="M59.375,76.136A7.36,7.36,0,0,0,60.8,76v.659a4.606,4.606,0,0,1-1.44.2,2.434,2.434,0,0,1-1.853-.628,2.826,2.826,0,0,1-.6-1.991V68.464H55.5v-.475l1.409-.368.444-2.021H57.8v2.159h2.787v.7H57.8V74.13a2.4,2.4,0,0,0,.383,1.516,1.4,1.4,0,0,0,1.21.49" transform="translate(27.948 32.059)" fill="#fff"/>
      <path id="Path_9" d="M64.452,75.423a3.392,3.392,0,0,0,2.389-.812,2.943,2.943,0,0,0,.873-2.282v-.873l-1.654.061a6.78,6.78,0,0,0-2.848.582,1.651,1.651,0,0,0-.842,1.547,1.609,1.609,0,0,0,.536,1.3,2.3,2.3,0,0,0,1.531.459m3.492.6-.214-1.424h-.061a4.53,4.53,0,0,1-1.47,1.225,4.447,4.447,0,0,1-1.776.368,3.285,3.285,0,0,1-2.175-.674,2.4,2.4,0,0,1-.781-1.868A2.3,2.3,0,0,1,62.6,71.594a6.5,6.5,0,0,1,3.339-.766l1.807-.046v-.6a2.913,2.913,0,0,0-.551-1.93,2.218,2.218,0,0,0-1.761-.659,6.249,6.249,0,0,0-2.726.689l-.322-.7a7.4,7.4,0,0,1,3.078-.689,2.73,2.73,0,0,1,3.093,3.155V76h-.628Z" transform="translate(31.109 32.742)" fill="#fff"/>
      <rect id="Rectangle_7" width="0.858" height="12.818" transform="translate(105.24 95.929)" fill="#fff"/>
      <path id="Path_10" d="M80.7,72.025h4.564l-1.73-4.349c-.153-.337-.322-.812-.521-1.409a9.311,9.311,0,0,1-.521,1.424L80.7,72.025Zm4.855.766H80.377L78.6,77.033h-.98L82.735,64.95H83.3l5.008,12.083h-1Z" transform="translate(39.703 31.714)" fill="#fff"/>
      <path id="Path_11" d="M88.129,69.853a2.031,2.031,0,0,0,.659,1.608,3.106,3.106,0,0,0,3.6,0,2.091,2.091,0,0,0,.628-1.654,2.161,2.161,0,0,0-.643-1.715,2.621,2.621,0,0,0-1.822-.567,2.431,2.431,0,0,0-1.776.613,2.215,2.215,0,0,0-.643,1.715m-.72,7.672q0,1.838,2.894,1.838,3.721,0,3.721-2.251a1.267,1.267,0,0,0-.582-1.164,3.676,3.676,0,0,0-1.9-.368H90c-1.73,0-2.6.643-2.6,1.93m7.672-10.46v.567l-1.96.107a3.012,3.012,0,0,1,.781,2.021,2.63,2.63,0,0,1-.919,2.1,3.541,3.541,0,0,1-2.435.8,5.857,5.857,0,0,1-.9-.046,2.133,2.133,0,0,0-.781.6,1.134,1.134,0,0,0-.26.735.683.683,0,0,0,.337.628,2.5,2.5,0,0,0,1.149.2h1.654a3.989,3.989,0,0,1,2.358.582,2.034,2.034,0,0,1,.827,1.746,2.459,2.459,0,0,1-1.21,2.19,6.459,6.459,0,0,1-3.461.766,5.012,5.012,0,0,1-2.772-.643,2.059,2.059,0,0,1-.98-1.807,2.179,2.179,0,0,1,.613-1.531,3.22,3.22,0,0,1,1.639-.827,1.834,1.834,0,0,1-.689-.49,1.134,1.134,0,0,1-.26-.735c0-.6.4-1.118,1.21-1.577a2.709,2.709,0,0,1-1.286-1.011,2.972,2.972,0,0,1,.444-3.721,3.505,3.505,0,0,1,2.435-.812,5.181,5.181,0,0,1,1.455.168h3.032Z" transform="translate(44.416 32.738)" fill="#fff"/>
      <path id="Path_12" d="M98.747,67.617a2.918,2.918,0,0,0-2.19.858,3.9,3.9,0,0,0-.965,2.45h5.85a3.746,3.746,0,0,0-.72-2.435,2.4,2.4,0,0,0-1.976-.873m.26,8.545a4.249,4.249,0,0,1-3.216-1.195A4.694,4.694,0,0,1,94.643,71.6a5.062,5.062,0,0,1,1.118-3.43,3.691,3.691,0,0,1,3-1.286,3.305,3.305,0,0,1,2.634,1.1,4.346,4.346,0,0,1,.965,3v.659H95.547a4.078,4.078,0,0,0,.9,2.818,3.32,3.32,0,0,0,2.557.965,8.92,8.92,0,0,0,1.424-.107,9.148,9.148,0,0,0,1.562-.459V75.6a7.211,7.211,0,0,1-1.486.444,9.758,9.758,0,0,1-1.5.122" transform="translate(48.745 32.738)" fill="#fff"/>
      <path id="Path_13" d="M109.615,76.006V70.2a2.75,2.75,0,0,0-.6-1.96,2.5,2.5,0,0,0-1.868-.613,3.324,3.324,0,0,0-2.481.812,3.622,3.622,0,0,0-.781,2.634v4.947h-.858V67.078h.735l.168,1.225h.046a3.611,3.611,0,0,1,3.293-1.394,2.845,2.845,0,0,1,3.216,2.466,3.594,3.594,0,0,1,0,.812v5.85h-.842Z" transform="translate(53.206 32.741)" fill="#fff"/>
      <path id="Path_14" d="M115.482,76.172a4.139,4.139,0,0,1-3.17-1.21,4.694,4.694,0,0,1-1.149-3.369,4.773,4.773,0,0,1,1.194-3.461,4.332,4.332,0,0,1,3.262-1.24,7.332,7.332,0,0,1,2.358.4l-.23.72a7.245,7.245,0,0,0-2.129-.383,3.32,3.32,0,0,0-2.634,1.011,4.356,4.356,0,0,0-.9,2.925,4.117,4.117,0,0,0,.9,2.833,3.179,3.179,0,0,0,2.512,1.026,6.416,6.416,0,0,0,2.389-.444v.766a5.48,5.48,0,0,1-2.374.413" transform="translate(57.524 32.743)" fill="#fff"/>
      <path id="Path_15" d="M117.64,67h.888l2.006,5.023c.613,1.547,1,2.588,1.164,3.124h.046q.368-1.057,1.195-3.17L124.945,67h.888l-4.242,10.4a8.162,8.162,0,0,1-.858,1.715,2.269,2.269,0,0,1-.812.659,2.829,2.829,0,0,1-1.133.23,3.851,3.851,0,0,1-1.1-.168v-.7a4.319,4.319,0,0,0,1.087.138,1.522,1.522,0,0,0,.781-.2,1.95,1.95,0,0,0,.613-.613,6.989,6.989,0,0,0,.643-1.317c.245-.6.4-1,.459-1.179L117.655,67Z" transform="translate(60.971 32.803)" fill="#fff"/>
    </g>
    <path id="Path_2629" data-name="Path 2629" d="M379.54,1110.755v217" transform="translate(132.025 -1070.755)" fill="none" stroke="#fff" stroke-width="1"/>
    <g id="Group_10397" data-name="Group 10397" transform="translate(0 1.004)">
      <g id="Group_10396" data-name="Group 10396" transform="translate(0 0)" clip-path="url(#clip-path)">
        <path id="Path_2616" data-name="Path 2616" d="M0,0V98.342l96.952.11S5.959,99.767,0,0" transform="translate(0 0)" fill="#02827b"/>
      </g>
    </g>
    <g id="Group_10405" data-name="Group 10405" transform="translate(14207.299 -9751.5)">
      <rect id="Rectangle_1642" data-name="Rectangle 1642" width="266" height="72" rx="36" transform="translate(-12871.299 9864.5)" fill="#202020"/>
      <g id="Group_10218" data-name="Group 10218" transform="translate(-13330.299 8892.5)">
        <g id="Group_10217" data-name="Group 10217" transform="translate(167 956)">
          <g id="Path_1630" data-name="Path 1630" transform="translate(500 32)" fill="none">
            <path d="M20,0A20,20,0,1,1,0,20,20,20,0,0,1,20,0Z" stroke="none"/>
            <path d="M 20 1 C 17.43457984924316 1 14.94642066955566 1.502220153808594 12.60465049743652 2.492698669433594 C 10.34226036071777 3.449611663818359 8.310220718383789 4.819721221923828 6.564968109130859 6.564968109130859 C 4.819721221923828 8.310220718383789 3.449611663818359 10.34226036071777 2.492698669433594 12.60465049743652 C 1.502220153808594 14.94642066955566 1 17.43457984924316 1 20 C 1 22.5654296875 1.502220153808594 25.05358123779297 2.492698669433594 27.39535140991211 C 3.449611663818359 29.65773963928223 4.819721221923828 31.68978118896484 6.564968109130859 33.43502807617188 C 8.310220718383789 35.18027877807617 10.34226036071777 36.55038833618164 12.60465049743652 37.50730133056641 C 14.94642066955566 38.49777984619141 17.43457984924316 39 20 39 C 22.5654296875 39 25.05358123779297 38.49777984619141 27.39535140991211 37.50730133056641 C 29.65773963928223 36.55038833618164 31.68978118896484 35.18027877807617 33.43502807617188 33.43502807617188 C 35.18027877807617 31.68978118896484 36.55038833618164 29.65773963928223 37.50730133056641 27.39535140991211 C 38.49777984619141 25.05358123779297 39 22.5654296875 39 20 C 39 17.43457984924316 38.49777984619141 14.94642066955566 37.50730133056641 12.60465049743652 C 36.55038833618164 10.34226036071777 35.18027877807617 8.310220718383789 33.43502807617188 6.564968109130859 C 31.68978118896484 4.819721221923828 29.65773963928223 3.449611663818359 27.39535140991211 2.492698669433594 C 25.05358123779297 1.502220153808594 22.5654296875 1 20 1 M 20 0 C 31.04570007324219 0 40 8.954309463500977 40 20 C 40 31.04570007324219 31.04570007324219 40 20 40 C 8.954309463500977 40 0 31.04570007324219 0 20 C 0 8.954309463500977 8.954309463500977 0 20 0 Z" stroke="none" fill="#1be3d9"/>
          </g>
          <path id="arrow-right-light_2_" data-name="arrow-right-light (2)" d="M15.3,7.014a.554.554,0,0,0,0-.78L9.225.16a.552.552,0,0,0-.78.78l5.132,5.132H.552a.552.552,0,1,0,0,1.1H13.577L8.445,12.309a.552.552,0,1,0,.78.78Z" transform="translate(512.189 45.375)" fill="#fff"/>
        </g>
        <text id="Work_with_us" data-name="Work with us" transform="translate(489 1016)" fill="#fff" font-size="26" font-family="Commissioner-Regular, Commissioner"><tspan x="0" y="0">Work with us</tspan></text>
      </g>
    </g>
  </g>
</svg>
