<?xml version="1.0" encoding="UTF-8"?>
<svg id="Laag_1" xmlns="http://www.w3.org/2000/svg" xmlns:xlink="http://www.w3.org/1999/xlink" version="1.1" viewBox="0 0 1692 297">
  <!-- Generator: Adobe Illustrator 30.0.0, SVG Export Plug-In . SVG Version: 2.1.1 Build 123)  -->
  <defs>
    <style>
      .st0, .st1 {
        fill: none;
      }

      .st2 {
        fill: #1be3d9;
      }

      .st3 {
        fill: #0e615b;
      }

      .st4 {
        fill: #02827b;
      }

      .st5, .st6 {
        fill: #01827b;
      }

      .st7 {
        fill: #0dafa8;
      }

      .st7, .st8, .st6 {
        fill-rule: evenodd;
      }

      .st9 {
        isolation: isolate;
      }

      .st8 {
        fill: #0aafa8;
      }

      .st10 {
        clip-path: url(#clippath-1);
      }

      .st11 {
        fill: #fff;
      }

      .st12 {
        fill: #202020;
      }

      .st13 {
        fill: #20cec7;
      }

      .st14 {
        clip-path: url(#clippath);
      }

      .st1 {
        stroke: #fff;
      }
    </style>
    <clipPath id="clippath">
      <rect class="st0" y="1" width="96.95" height="98.45"/>
    </clipPath>
    <clipPath id="clippath-1">
      <rect class="st0" x=".8" y="-1.05" width="112.72" height="299.29"/>
    </clipPath>
  </defs>
  <rect class="st0" y="0" width="1692" height="297"/>
  <rect class="st3" y="0" width="1692" height="297"/>
  <path id="Rectangle_1563" class="st4" d="M0,0h1246v207c0,49.71-40.29,90-90,90H0V0h0Z"/>
  <g id="Where_digital_innovation_meets_social_impact." class="st9">
    <g class="st9">
      <path class="st11" d="M622.33,132c-.44-1.62-.93-3.37-1.45-5.22-.52-1.86-1-3.57-1.45-5.15l-2.88-10.28c-.51-1.82-1.07-3.83-1.68-6-.61-2.18-1.19-4.22-1.73-6.14h6.05c.55,2.22,1.13,4.56,1.75,7.01.61,2.45,1.19,4.79,1.73,7.02l3.08,12.37h.46l3.04-12.54c.35-1.43.72-2.94,1.1-4.53s.77-3.19,1.16-4.78.76-3.11,1.12-4.55h6c.55,2.22,1.13,4.54,1.73,6.95.6,2.41,1.18,4.73,1.75,6.97l3.1,12.49h.46l3.1-12.56c.54-2.16,1.11-4.47,1.71-6.92.61-2.45,1.18-4.76,1.71-6.92h6.03c-.54,1.95-1.11,3.99-1.71,6.14-.61,2.15-1.17,4.12-1.69,5.93l-2.92,10.35c-.48,1.64-.97,3.38-1.48,5.23s-1,3.56-1.46,5.14h-6.74c-.55-2.1-1.13-4.31-1.74-6.64-.61-2.32-1.18-4.51-1.71-6.57l-3.1-11.94h-.46l-3.04,11.94c-.52,2.05-1.08,4.25-1.68,6.59-.6,2.34-1.17,4.54-1.7,6.61h-6.46Z"/>
      <path class="st11" d="M662.92,132v-33.67l4.92-.53v14.9h.46c.46-.64,1.04-1.28,1.75-1.92.71-.64,1.53-1.17,2.48-1.59.95-.42,2.04-.63,3.27-.63,2.38,0,4.14.69,5.28,2.07,1.14,1.38,1.71,3.4,1.71,6.07v15.29h-4.92v-13.87c0-1.66-.28-2.91-.85-3.75-.57-.84-1.61-1.26-3.13-1.26-.89,0-1.7.18-2.44.54-.74.36-1.4.84-2,1.45-.6.61-1.14,1.28-1.61,2.01v14.88h-4.92Z"/>
      <path class="st11" d="M700.11,132.53c-2.81,0-5.11-.52-6.92-1.56-1.81-1.04-3.15-2.47-4.01-4.28-.87-1.81-1.3-3.89-1.3-6.23s.42-4.37,1.25-6.16,2.06-3.19,3.67-4.2c1.61-1,3.56-1.51,5.84-1.51,1.98,0,3.68.37,5.11,1.12,1.43.74,2.52,1.85,3.29,3.32.77,1.47,1.15,3.3,1.15,5.47,0,.58-.01,1.11-.03,1.58-.02.47-.07.93-.15,1.39l-4.3-1.89c.03-.23.05-.46.07-.68.02-.22.02-.43.02-.63,0-1.89-.47-3.35-1.41-4.38-.94-1.04-2.17-1.55-3.69-1.55-1.18,0-2.21.32-3.08.97-.87.64-1.55,1.53-2.04,2.65-.48,1.12-.72,2.41-.72,3.86v.74c0,1.63.28,3.02.84,4.19.56,1.17,1.42,2.06,2.58,2.69,1.16.63,2.62.94,4.38.94.67,0,1.41-.06,2.22-.17.8-.12,1.61-.29,2.43-.54.81-.25,1.58-.56,2.3-.94l.18,4.28c-.58.31-1.27.58-2.05.8-.78.23-1.64.41-2.59.54-.94.13-1.95.2-3.02.2ZM689.85,121.47v-3.36l15.2-.18,2.94,1.22v2.32h-18.15Z"/>
      <path class="st11" d="M713.61,132v-22.86l4.21-.28.18,4.51h.46c.61-1.35,1.31-2.37,2.09-3.06.78-.69,1.58-1.15,2.39-1.39.81-.24,1.57-.36,2.28-.36.4,0,.81.03,1.24.09s.84.16,1.22.3l-.44,4.88c-.54-.09-1.02-.16-1.45-.21s-.92-.07-1.47-.07c-.43,0-.9.06-1.43.17-.52.12-1.05.35-1.58.7-.53.35-1.03.88-1.52,1.58-.48.7-.91,1.61-1.28,2.75v13.25h-4.92Z"/>
      <path class="st11" d="M742.2,132.53c-2.81,0-5.11-.52-6.92-1.56-1.81-1.04-3.15-2.47-4.01-4.28-.87-1.81-1.3-3.89-1.3-6.23s.42-4.37,1.25-6.16,2.06-3.19,3.67-4.2c1.61-1,3.56-1.51,5.84-1.51,1.98,0,3.68.37,5.11,1.12,1.43.74,2.52,1.85,3.29,3.32.77,1.47,1.15,3.3,1.15,5.47,0,.58-.01,1.11-.03,1.58-.02.47-.07.93-.15,1.39l-4.3-1.89c.03-.23.05-.46.07-.68.02-.22.02-.43.02-.63,0-1.89-.47-3.35-1.41-4.38-.94-1.04-2.17-1.55-3.69-1.55-1.18,0-2.21.32-3.08.97-.87.64-1.55,1.53-2.04,2.65-.48,1.12-.72,2.41-.72,3.86v.74c0,1.63.28,3.02.84,4.19.56,1.17,1.42,2.06,2.58,2.69,1.16.63,2.62.94,4.38.94.67,0,1.41-.06,2.22-.17.8-.12,1.61-.29,2.43-.54.81-.25,1.58-.56,2.3-.94l.18,4.28c-.58.31-1.27.58-2.05.8-.78.23-1.64.41-2.59.54-.94.13-1.95.2-3.02.2ZM731.94,121.47v-3.36l15.2-.18,2.94,1.22v2.32h-18.15Z"/>
      <path class="st11" d="M772.58,132.55c-2.15,0-3.93-.56-5.35-1.68-1.42-1.12-2.48-2.59-3.17-4.43-.7-1.83-1.05-3.81-1.05-5.95,0-2.25.37-4.29,1.12-6.09.74-1.81,1.84-3.24,3.28-4.28s3.19-1.56,5.24-1.56c1,0,1.92.13,2.76.39s1.59.62,2.23,1.08c.64.46,1.18.98,1.61,1.56h.46v-13.27l4.92-.53v34.2h-4.23l-.28-3.08h-.41c-.58.78-1.23,1.44-1.94,1.98-.71.54-1.5.95-2.36,1.23-.86.28-1.8.42-2.83.42ZM774.26,128.25c.83,0,1.58-.13,2.25-.4s1.28-.65,1.81-1.14c.53-.49.99-1.07,1.39-1.75v-9.29c-.41-.61-.9-1.12-1.47-1.53s-1.19-.71-1.86-.92c-.67-.21-1.37-.31-2.07-.31-1.41,0-2.58.34-3.5,1.04-.92.69-1.61,1.61-2.07,2.77-.46,1.16-.69,2.43-.69,3.83s.22,2.59.66,3.76,1.11,2.12,2.02,2.85c.91.73,2.09,1.09,3.53,1.09Z"/>
      <path class="st11" d="M793.68,104.49c-.98,0-1.77-.26-2.38-.77-.61-.51-.91-1.32-.91-2.43,0-1.03.3-1.81.91-2.35.61-.54,1.41-.81,2.43-.81s1.84.28,2.43.83c.59.55.89,1.33.89,2.32,0,1.1-.3,1.91-.9,2.43-.6.51-1.42.77-2.46.77ZM791.28,132v-22.86l4.92-.16v23.02h-4.92Z"/>
      <path class="st11" d="M810.99,141.36c-1.7,0-3.13-.15-4.28-.45-1.15-.3-2.07-.71-2.75-1.22s-1.17-1.09-1.45-1.72c-.28-.64-.43-1.28-.43-1.94,0-1.03.25-1.88.74-2.56.49-.68,1.07-1.22,1.72-1.6.66-.38,1.23-.65,1.7-.81v-.39c-.25-.08-.55-.24-.91-.49s-.69-.61-.98-1.08c-.29-.47-.44-1.05-.44-1.76,0-.52.1-1.01.29-1.47s.49-.88.9-1.25.93-.7,1.58-.98v-.39c-.38-.15-.85-.41-1.4-.76-.55-.35-1.09-.81-1.62-1.38-.53-.57-.97-1.26-1.33-2.09-.36-.83-.54-1.8-.54-2.92,0-1.46.36-2.75,1.08-3.89.72-1.13,1.77-2.02,3.15-2.66,1.38-.64,3.05-.95,5.01-.95.77,0,1.44.04,2.02.12.58.08,1.19.16,1.82.24.63.08,1.4.13,2.32.13h6.78v3.54h-8.53l1.36-2.25c1.21.64,2.09,1.48,2.65,2.51.55,1.03.83,2.2.83,3.52,0,1.53-.32,2.83-.95,3.88-.64,1.05-1.51,1.9-2.63,2.54-1.12.64-2.41,1.13-3.86,1.45-1.49.35-2.59.66-3.3.93-.71.27-1.07.66-1.07,1.18,0,.37.15.65.46.85s.78.34,1.43.44c.64.09,1.49.14,2.53.14h.97c2.05,0,3.76.17,5.13.49,1.36.33,2.39.89,3.07,1.69.68.8,1.02,1.89,1.02,3.27s-.36,2.63-1.07,3.66c-.71,1.03-1.67,1.87-2.86,2.53-1.2.66-2.5,1.15-3.91,1.46-1.41.31-2.82.47-4.23.47ZM810.83,120.82c.48-.08,1-.2,1.56-.36.57-.16,1.1-.39,1.61-.7.51-.31.92-.71,1.24-1.2.32-.49.48-1.1.48-1.82,0-.97-.25-1.75-.74-2.36-.49-.61-1.1-1.05-1.83-1.35-.73-.29-1.46-.44-2.2-.44-.78,0-1.52.15-2.22.44-.7.29-1.27.73-1.73,1.31-.45.58-.68,1.3-.68,2.14s.21,1.54.64,2.14c.43.6.99,1.08,1.67,1.45s1.41.61,2.17.74ZM811.5,137.52c1.55,0,2.84-.2,3.86-.61s1.79-.88,2.3-1.43c.51-.54.76-1.02.76-1.44,0-.49-.15-.9-.46-1.24-.31-.34-.88-.59-1.73-.77-.84-.18-2.06-.26-3.66-.26h-.81c-.81.03-1.62.18-2.42.45-.8.27-1.46.63-1.99,1.08-.53.45-.79.97-.79,1.55,0,.34.09.67.26.99s.46.61.85.86.9.45,1.53.6c.63.15,1.39.22,2.28.22Z"/>
      <path class="st11" d="M830.91,104.49c-.98,0-1.77-.26-2.38-.77-.61-.51-.91-1.32-.91-2.43,0-1.03.3-1.81.91-2.35.61-.54,1.41-.81,2.43-.81s1.84.28,2.43.83c.59.55.89,1.33.89,2.32,0,1.1-.3,1.91-.9,2.43-.6.51-1.42.77-2.46.77ZM828.52,132v-22.86l4.92-.16v23.02h-4.92Z"/>
      <path class="st11" d="M838.09,112.93v-3.79h16.61v3.79h-16.61ZM849.68,132.55c-1.58,0-2.92-.26-4.04-.78-1.11-.52-1.96-1.33-2.53-2.44-.58-1.1-.86-2.53-.86-4.28v-23.34l4.85-.97v22.95c0,1.56.31,2.74.94,3.53s1.61,1.18,2.94,1.18c.55,0,1.15-.1,1.78-.29.64-.19,1.22-.49,1.76-.88l.34,4.14c-.35.23-.8.43-1.34.61-.54.18-1.15.31-1.82.41s-1.35.15-2.04.15Z"/>
      <path class="st11" d="M865.11,132.48c-1.3,0-2.47-.26-3.5-.79-1.03-.53-1.84-1.3-2.43-2.3-.59-1-.88-2.23-.88-3.67,0-1.27.22-2.34.66-3.21s1.02-1.58,1.74-2.13c.72-.55,1.53-.98,2.41-1.29.89-.31,1.79-.53,2.69-.67l6.79-1.06c.06-1.27-.13-2.25-.56-2.92-.44-.67-1.05-1.13-1.84-1.38-.79-.25-1.68-.37-2.68-.37-.52,0-1.08.04-1.69.12-.61.08-1.24.2-1.91.38-.67.18-1.37.39-2.09.64-.73.25-1.48.56-2.24.91l-.28-4.37c.57-.23,1.2-.45,1.91-.67.71-.21,1.47-.41,2.29-.59.82-.18,1.67-.31,2.54-.4.87-.09,1.76-.14,2.67-.14,1.81,0,3.36.27,4.65.8,1.29.54,2.28,1.39,2.97,2.56.69,1.17,1.04,2.7,1.04,4.57v15.48h-4.44l-.28-3.04h-.44c-.45.57-1,1.12-1.67,1.66s-1.46.98-2.37,1.33-1.93.53-3.05.53ZM866.72,128.57c.74,0,1.46-.17,2.17-.5.71-.33,1.38-.8,1.99-1.41.61-.61,1.14-1.36,1.59-2.23v-4.05c-.23.14-.53.27-.89.39-.36.12-.9.26-1.62.41-.72.15-1.73.34-3.04.57-.75.12-1.4.35-1.93.67-.54.32-.96.74-1.25,1.25s-.45,1.12-.45,1.83c0,1.12.34,1.91,1.02,2.37.68.46,1.48.69,2.4.69Z"/>
      <path class="st11" d="M883.9,132v-33.67l4.92-.53v34.2h-4.92Z"/>
      <path class="st11" d="M907.18,104.49c-.98,0-1.77-.26-2.38-.77-.61-.51-.91-1.32-.91-2.43,0-1.03.3-1.81.91-2.35.61-.54,1.42-.81,2.43-.81s1.84.28,2.43.83c.59.55.89,1.33.89,2.32,0,1.1-.3,1.91-.9,2.43-.6.51-1.42.77-2.46.77ZM904.79,132v-22.86l4.92-.16v23.02h-4.92Z"/>
      <path class="st11" d="M916.88,132v-22.86l4.21-.28.18,4.14h.48c.49-.71,1.12-1.4,1.88-2.08.76-.68,1.64-1.25,2.66-1.69,1.01-.45,2.17-.67,3.47-.67,2.38,0,4.14.69,5.28,2.07s1.71,3.4,1.71,6.07v15.29h-4.92v-13.87c0-1.66-.28-2.91-.85-3.75-.57-.84-1.61-1.26-3.13-1.26-.89,0-1.7.18-2.44.54-.74.36-1.4.84-2,1.45-.6.61-1.13,1.28-1.61,2.01v14.88h-4.92Z"/>
      <path class="st11" d="M943.33,132v-22.86l4.21-.28.18,4.14h.48c.49-.71,1.12-1.4,1.87-2.08.76-.68,1.64-1.25,2.66-1.69,1.01-.45,2.17-.67,3.47-.67,2.38,0,4.14.69,5.28,2.07s1.71,3.4,1.71,6.07v15.29h-4.92v-13.87c0-1.66-.28-2.91-.85-3.75-.57-.84-1.61-1.26-3.13-1.26-.89,0-1.7.18-2.44.54-.74.36-1.4.84-2,1.45-.6.61-1.14,1.28-1.61,2.01v14.88h-4.92Z"/>
      <path class="st11" d="M980.09,132.55c-1.96,0-3.68-.33-5.15-.99-1.47-.66-2.7-1.55-3.69-2.68-.99-1.13-1.73-2.42-2.22-3.86-.49-1.45-.74-2.97-.74-4.57,0-2.28.46-4.32,1.38-6.11.92-1.79,2.25-3.2,4-4.23,1.75-1.04,3.86-1.55,6.32-1.55,1.89,0,3.56.3,5.01.9s2.68,1.44,3.67,2.52,1.74,2.34,2.24,3.78c.51,1.44.76,3.01.76,4.69,0,2.29-.46,4.34-1.38,6.16s-2.25,3.27-3.99,4.33c-1.74,1.07-3.81,1.6-6.22,1.6ZM980.07,128.41c1.47,0,2.7-.38,3.68-1.14s1.71-1.74,2.2-2.96c.48-1.21.72-2.5.72-3.86,0-1.58-.27-2.95-.82-4.11-.54-1.16-1.31-2.05-2.3-2.69-.99-.64-2.16-.95-3.51-.95-1.46,0-2.69.34-3.69,1.02s-1.76,1.61-2.28,2.78c-.51,1.17-.77,2.49-.77,3.94,0,1.37.25,2.65.75,3.86.5,1.21,1.25,2.2,2.25,2.96s2.26,1.14,3.76,1.14Z"/>
      <path class="st11" d="M1002.19,132c-.52-1.43-1.05-2.88-1.58-4.35-.53-1.47-1.05-2.91-1.58-4.3l-1.49-4.05c-.61-1.69-1.23-3.38-1.86-5.09-.63-1.71-1.25-3.4-1.86-5.07l5.29-.18c.58,1.81,1.15,3.61,1.71,5.41.56,1.79,1.13,3.6,1.71,5.43l2.19,6.88h.46l2.18-6.9c.58-1.85,1.16-3.66,1.72-5.42.57-1.76,1.12-3.49,1.66-5.21h5.24c-.61,1.69-1.23,3.39-1.86,5.09-.63,1.71-1.25,3.42-1.86,5.12l-1.5,4.09c-.52,1.44-1.04,2.87-1.55,4.28-.51,1.41-1.04,2.84-1.58,4.28h-5.45Z"/>
      <path class="st11" d="M1025.47,132.48c-1.3,0-2.47-.26-3.5-.79-1.03-.53-1.84-1.3-2.43-2.3-.59-1-.88-2.23-.88-3.67,0-1.27.22-2.34.66-3.21s1.02-1.58,1.74-2.13c.72-.55,1.53-.98,2.41-1.29.89-.31,1.79-.53,2.69-.67l6.79-1.06c.06-1.27-.13-2.25-.56-2.92-.44-.67-1.05-1.13-1.84-1.38-.79-.25-1.68-.37-2.68-.37-.52,0-1.08.04-1.69.12-.61.08-1.24.2-1.91.38-.67.18-1.37.39-2.09.64-.73.25-1.48.56-2.24.91l-.28-4.37c.57-.23,1.2-.45,1.91-.67.71-.21,1.47-.41,2.29-.59.82-.18,1.67-.31,2.54-.4.87-.09,1.76-.14,2.67-.14,1.81,0,3.36.27,4.65.8,1.29.54,2.28,1.39,2.97,2.56.69,1.17,1.04,2.7,1.04,4.57v15.48h-4.44l-.28-3.04h-.44c-.45.57-1,1.12-1.67,1.66s-1.46.98-2.37,1.33-1.93.53-3.05.53ZM1027.08,128.57c.74,0,1.46-.17,2.17-.5.71-.33,1.38-.8,1.99-1.41.61-.61,1.14-1.36,1.59-2.23v-4.05c-.23.14-.53.27-.89.39-.36.12-.9.26-1.62.41-.72.15-1.73.34-3.04.57-.75.12-1.4.35-1.93.67-.54.32-.96.74-1.25,1.25s-.45,1.12-.45,1.83c0,1.12.34,1.91,1.02,2.37.68.46,1.48.69,2.4.69Z"/>
      <path class="st11" d="M1041.73,112.93v-3.79h16.61v3.79h-16.61ZM1053.32,132.55c-1.58,0-2.92-.26-4.04-.78-1.11-.52-1.96-1.33-2.53-2.44-.57-1.1-.86-2.53-.86-4.28v-23.34l4.85-.97v22.95c0,1.56.31,2.74.94,3.53s1.61,1.18,2.94,1.18c.55,0,1.15-.1,1.78-.29.64-.19,1.22-.49,1.76-.88l.34,4.14c-.35.23-.8.43-1.35.61-.54.18-1.15.31-1.82.41s-1.35.15-2.04.15Z"/>
      <path class="st11" d="M1065.81,104.49c-.98,0-1.78-.26-2.38-.77s-.91-1.32-.91-2.43c0-1.03.3-1.81.91-2.35s1.41-.81,2.43-.81,1.84.28,2.43.83c.59.55.89,1.33.89,2.32,0,1.1-.3,1.91-.9,2.43-.6.51-1.42.77-2.46.77ZM1063.42,132v-22.86l4.92-.16v23.02h-4.92Z"/>
      <path class="st11" d="M1085.82,132.55c-1.96,0-3.68-.33-5.15-.99-1.47-.66-2.7-1.55-3.69-2.68-.99-1.13-1.73-2.42-2.22-3.86-.49-1.45-.74-2.97-.74-4.57,0-2.28.46-4.32,1.38-6.11s2.25-3.2,4-4.23,3.86-1.55,6.33-1.55c1.89,0,3.56.3,5.01.9,1.46.6,2.68,1.44,3.67,2.52s1.74,2.34,2.24,3.78c.51,1.44.76,3.01.76,4.69,0,2.29-.46,4.34-1.38,6.16s-2.25,3.27-3.99,4.33c-1.74,1.07-3.81,1.6-6.22,1.6ZM1085.79,128.41c1.47,0,2.7-.38,3.68-1.14s1.71-1.74,2.2-2.96c.48-1.21.72-2.5.72-3.86,0-1.58-.27-2.95-.82-4.11-.54-1.16-1.31-2.05-2.3-2.69-.99-.64-2.16-.95-3.51-.95-1.46,0-2.69.34-3.69,1.02s-1.76,1.61-2.28,2.78-.77,2.49-.77,3.94c0,1.37.25,2.65.75,3.86.5,1.21,1.25,2.2,2.25,2.96,1,.76,2.26,1.14,3.76,1.14Z"/>
      <path class="st11" d="M1103,132v-22.86l4.21-.28.18,4.14h.48c.49-.71,1.12-1.4,1.88-2.08.76-.68,1.64-1.25,2.66-1.69,1.01-.45,2.17-.67,3.47-.67,2.38,0,4.14.69,5.28,2.07s1.71,3.4,1.71,6.07v15.29h-4.92v-13.87c0-1.66-.28-2.91-.85-3.75-.57-.84-1.61-1.26-3.13-1.26-.89,0-1.7.18-2.44.54-.74.36-1.4.84-2,1.45-.6.61-1.13,1.28-1.61,2.01v14.88h-4.92Z"/>
    </g>
    <g class="st9">
      <path class="st11" d="M615.54,192v-22.86l4.21-.28.18,4.12h.48c.49-.71,1.1-1.39,1.82-2.07s1.57-1.23,2.54-1.68c.97-.45,2.08-.67,3.32-.67,1.84,0,3.25.46,4.24,1.37.99.91,1.64,2.22,1.94,3.92l.32.12c.08.41.13.85.17,1.3.04.45.06.93.06,1.44v15.29h-4.9v-13.87c0-1.66-.27-2.91-.82-3.75-.54-.84-1.53-1.26-2.96-1.26-.84,0-1.61.18-2.3.55s-1.32.86-1.89,1.46-1.07,1.27-1.52,1.99v14.88h-4.92ZM644.18,192v-13.87c0-1.66-.27-2.91-.82-3.75-.54-.84-1.52-1.26-2.93-1.26-.84,0-1.61.18-2.31.54-.7.36-1.33.84-1.9,1.45-.57.61-1.08,1.28-1.54,2.01l-.71-4.07h.48c.54-.72,1.18-1.43,1.92-2.12.74-.69,1.61-1.26,2.61-1.7,1-.45,2.12-.67,3.38-.67,2.35,0,4.06.71,5.13,2.12,1.07,1.41,1.61,3.42,1.61,6.03v15.29h-4.92Z"/>
      <path class="st11" d="M666.42,192.53c-2.81,0-5.11-.52-6.92-1.56-1.81-1.04-3.15-2.47-4.01-4.28-.87-1.81-1.3-3.89-1.3-6.23s.42-4.37,1.25-6.16,2.06-3.19,3.67-4.2c1.61-1,3.56-1.51,5.84-1.51,1.98,0,3.68.37,5.11,1.12,1.43.74,2.52,1.85,3.29,3.32.77,1.47,1.15,3.3,1.15,5.47,0,.58-.01,1.11-.03,1.58-.02.47-.07.93-.15,1.39l-4.3-1.89c.03-.23.05-.46.07-.68.02-.22.02-.43.02-.63,0-1.89-.47-3.35-1.41-4.38-.94-1.04-2.17-1.55-3.69-1.55-1.18,0-2.21.32-3.08.97-.87.64-1.55,1.53-2.04,2.65-.48,1.12-.72,2.41-.72,3.86v.74c0,1.63.28,3.02.84,4.19.56,1.17,1.42,2.06,2.58,2.69,1.16.63,2.62.94,4.38.94.67,0,1.41-.06,2.22-.17.8-.12,1.61-.29,2.43-.54.81-.25,1.58-.56,2.3-.94l.18,4.28c-.58.31-1.27.58-2.05.8-.78.23-1.64.41-2.59.54-.94.13-1.95.2-3.02.2ZM656.16,181.47v-3.36l15.2-.18,2.94,1.22v2.32h-18.15Z"/>
      <path class="st11" d="M690.66,192.53c-2.81,0-5.11-.52-6.92-1.56-1.81-1.04-3.15-2.47-4.01-4.28-.87-1.81-1.3-3.89-1.3-6.23s.42-4.37,1.25-6.16,2.06-3.19,3.67-4.2c1.61-1,3.56-1.51,5.84-1.51,1.98,0,3.68.37,5.11,1.12,1.43.74,2.52,1.85,3.29,3.32.77,1.47,1.15,3.3,1.15,5.47,0,.58-.01,1.11-.03,1.58-.02.47-.07.93-.15,1.39l-4.3-1.89c.03-.23.05-.46.07-.68.02-.22.02-.43.02-.63,0-1.89-.47-3.35-1.41-4.38-.94-1.04-2.17-1.55-3.69-1.55-1.18,0-2.21.32-3.08.97-.87.64-1.55,1.53-2.04,2.65-.48,1.12-.72,2.41-.72,3.86v.74c0,1.63.28,3.02.84,4.19.56,1.17,1.42,2.06,2.58,2.69,1.16.63,2.62.94,4.38.94.67,0,1.41-.06,2.22-.17.8-.12,1.61-.29,2.43-.54.81-.25,1.58-.56,2.3-.94l.18,4.28c-.58.31-1.27.58-2.05.8-.78.23-1.64.41-2.59.54-.94.13-1.95.2-3.02.2ZM680.4,181.47v-3.36l15.2-.18,2.94,1.22v2.32h-18.15Z"/>
      <path class="st11" d="M701.35,172.93v-3.79h16.61v3.79h-16.61ZM712.95,192.55c-1.58,0-2.92-.26-4.04-.78-1.11-.52-1.96-1.33-2.53-2.44-.58-1.1-.86-2.53-.86-4.28v-23.34l4.85-.97v22.95c0,1.56.31,2.74.94,3.53.63.79,1.61,1.18,2.94,1.18.55,0,1.15-.1,1.78-.29.64-.19,1.22-.49,1.76-.88l.34,4.14c-.35.23-.8.43-1.35.61-.54.18-1.15.31-1.82.41s-1.35.15-2.04.15Z"/>
      <path class="st11" d="M729.74,192.53c-1,0-1.98-.07-2.96-.21-.97-.14-1.89-.33-2.74-.59-.85-.25-1.6-.53-2.24-.84l.37-4.46c.69.4,1.44.75,2.25,1.05.81.3,1.66.53,2.54.69.88.16,1.77.24,2.66.24.74,0,1.41-.07,2.04-.22.62-.15,1.12-.43,1.5-.84.38-.41.56-1.03.56-1.84,0-.54-.18-.98-.53-1.33-.35-.35-.93-.67-1.73-.95-.8-.28-1.89-.62-3.27-1-1.27-.34-2.38-.76-3.32-1.26s-1.68-1.18-2.2-2.02c-.52-.84-.78-1.95-.78-3.33,0-2.22.71-3.95,2.14-5.17,1.43-1.23,3.33-1.84,5.73-1.84,1.01,0,1.99.08,2.94.24s1.82.37,2.61.62,1.46.52,2.01.79l-.39,4.46c-.71-.44-1.47-.82-2.29-1.12-.82-.3-1.61-.52-2.36-.67-.75-.15-1.39-.22-1.91-.22-.6,0-1.16.08-1.69.24-.53.16-.95.44-1.28.83-.32.39-.48.92-.48,1.58,0,.52.12.97.37,1.33.25.37.69.71,1.35,1.01s1.6.63,2.84.97c1.55.44,2.86.91,3.94,1.4,1.08.49,1.9,1.13,2.45,1.93.55.8.83,1.9.83,3.31s-.31,2.66-.92,3.75c-.61,1.09-1.58,1.94-2.9,2.55-1.32.61-3.04.92-5.15.92Z"/>
      <path class="st11" d="M759.64,192.53c-1,0-1.98-.07-2.96-.21-.97-.14-1.89-.33-2.74-.59-.85-.25-1.6-.53-2.24-.84l.37-4.46c.69.4,1.44.75,2.25,1.05.81.3,1.66.53,2.54.69.88.16,1.77.24,2.66.24.74,0,1.41-.07,2.04-.22.62-.15,1.12-.43,1.5-.84.38-.41.56-1.03.56-1.84,0-.54-.18-.98-.53-1.33-.35-.35-.93-.67-1.73-.95-.8-.28-1.89-.62-3.27-1-1.27-.34-2.38-.76-3.32-1.26s-1.68-1.18-2.2-2.02c-.52-.84-.78-1.95-.78-3.33,0-2.22.71-3.95,2.14-5.17,1.43-1.23,3.33-1.84,5.73-1.84,1.01,0,1.99.08,2.94.24s1.82.37,2.61.62,1.46.52,2.01.79l-.39,4.46c-.71-.44-1.47-.82-2.29-1.12-.82-.3-1.61-.52-2.36-.67-.75-.15-1.39-.22-1.91-.22-.6,0-1.16.08-1.69.24-.53.16-.95.44-1.28.83-.32.39-.48.92-.48,1.58,0,.52.12.97.37,1.33.25.37.69.71,1.35,1.01s1.6.63,2.84.97c1.55.44,2.86.91,3.94,1.4,1.08.49,1.9,1.13,2.45,1.93.55.8.83,1.9.83,3.31s-.31,2.66-.92,3.75c-.61,1.09-1.58,1.94-2.9,2.55-1.32.61-3.04.92-5.15.92Z"/>
      <path class="st11" d="M784.27,192.55c-1.96,0-3.68-.33-5.15-.99-1.47-.66-2.7-1.55-3.69-2.68-.99-1.13-1.73-2.42-2.22-3.86-.49-1.45-.74-2.97-.74-4.57,0-2.28.46-4.32,1.38-6.11.92-1.79,2.25-3.2,4-4.23,1.75-1.04,3.86-1.55,6.32-1.55,1.89,0,3.56.3,5.01.9,1.46.6,2.68,1.44,3.67,2.52.99,1.08,1.74,2.34,2.24,3.78.51,1.44.76,3.01.76,4.69,0,2.29-.46,4.34-1.38,6.16s-2.25,3.27-3.99,4.33c-1.74,1.07-3.81,1.6-6.22,1.6ZM784.25,188.41c1.47,0,2.7-.38,3.68-1.14.98-.76,1.71-1.74,2.2-2.96.48-1.21.72-2.5.72-3.86,0-1.58-.27-2.95-.82-4.11-.54-1.16-1.31-2.05-2.3-2.69-.99-.64-2.16-.95-3.51-.95-1.46,0-2.69.34-3.69,1.02s-1.76,1.61-2.28,2.78c-.51,1.17-.77,2.49-.77,3.94,0,1.37.25,2.65.75,3.86.5,1.21,1.25,2.2,2.25,2.96,1,.76,2.26,1.14,3.76,1.14Z"/>
      <path class="st11" d="M811.75,192.46c-2.52,0-4.65-.52-6.41-1.55s-3.09-2.45-4.01-4.24c-.92-1.79-1.38-3.83-1.38-6.09s.43-4.33,1.3-6.14c.87-1.81,2.15-3.23,3.84-4.28s3.78-1.56,6.24-1.56c.89,0,1.77.07,2.66.22s1.71.34,2.5.6,1.47.55,2.07.89l-.41,4.37c-.86-.49-1.66-.87-2.4-1.13s-1.43-.44-2.06-.54c-.63-.1-1.2-.15-1.72-.15-2.12,0-3.81.69-5.08,2.06-1.27,1.37-1.91,3.22-1.91,5.55,0,1.5.29,2.84.87,4.02.58,1.18,1.45,2.12,2.61,2.81,1.16.69,2.6,1.04,4.31,1.04.63,0,1.26-.06,1.89-.17.63-.12,1.25-.29,1.85-.53.61-.24,1.19-.54,1.76-.91l.35,4.39c-.52.25-1.12.47-1.79.68s-1.43.37-2.28.5c-.84.12-1.77.18-2.78.18Z"/>
      <path class="st11" d="M826.52,164.49c-.98,0-1.77-.26-2.38-.77-.61-.51-.91-1.32-.91-2.43,0-1.03.3-1.81.91-2.35.61-.54,1.41-.81,2.43-.81s1.84.28,2.43.83c.59.55.89,1.33.89,2.32,0,1.1-.3,1.91-.9,2.43-.6.51-1.42.77-2.46.77ZM824.13,192v-22.86l4.92-.16v23.02h-4.92Z"/>
      <path class="st11" d="M841.65,192.48c-1.3,0-2.47-.26-3.5-.79-1.03-.53-1.84-1.3-2.43-2.3s-.89-2.23-.89-3.67c0-1.27.22-2.34.66-3.21s1.02-1.58,1.74-2.13c.72-.55,1.53-.98,2.42-1.29.89-.31,1.79-.53,2.69-.67l6.78-1.06c.06-1.27-.13-2.25-.56-2.92s-1.05-1.13-1.84-1.38c-.79-.25-1.68-.37-2.68-.37-.52,0-1.08.04-1.69.12-.61.08-1.24.2-1.91.38-.67.18-1.37.39-2.09.64-.73.25-1.48.56-2.24.91l-.28-4.37c.57-.23,1.2-.45,1.91-.67.71-.21,1.47-.41,2.29-.59.82-.18,1.67-.31,2.54-.4.87-.09,1.76-.14,2.67-.14,1.81,0,3.36.27,4.65.8,1.29.54,2.28,1.39,2.97,2.56.69,1.17,1.04,2.7,1.04,4.57v15.48h-4.44l-.28-3.04h-.44c-.45.57-1,1.12-1.67,1.66-.67.54-1.46.98-2.37,1.33-.91.35-1.93.53-3.05.53ZM843.26,188.57c.74,0,1.46-.17,2.17-.5.71-.33,1.38-.8,1.99-1.41s1.14-1.36,1.59-2.23v-4.05c-.23.14-.53.27-.89.39-.36.12-.9.26-1.62.41s-1.73.34-3.04.57c-.75.12-1.4.35-1.93.67-.54.32-.95.74-1.25,1.25s-.45,1.12-.45,1.83c0,1.12.34,1.91,1.02,2.37s1.48.69,2.4.69Z"/>
      <path class="st11" d="M860.44,192v-33.67l4.92-.53v34.2h-4.92Z"/>
      <path class="st11" d="M883.72,164.49c-.98,0-1.78-.26-2.38-.77s-.91-1.32-.91-2.43c0-1.03.3-1.81.91-2.35s1.41-.81,2.43-.81,1.84.28,2.43.83c.59.55.88,1.33.88,2.32,0,1.1-.3,1.91-.9,2.43s-1.42.77-2.46.77ZM881.33,192v-22.86l4.92-.16v23.02h-4.92Z"/>
      <path class="st11" d="M893.42,192v-22.86l4.21-.28.18,4.12h.48c.49-.71,1.1-1.39,1.82-2.07s1.57-1.23,2.54-1.68c.97-.45,2.08-.67,3.32-.67,1.84,0,3.25.46,4.24,1.37s1.64,2.22,1.94,3.92l.32.12c.08.41.13.85.17,1.3.04.45.06.93.06,1.44v15.29h-4.9v-13.87c0-1.66-.27-2.91-.82-3.75-.54-.84-1.53-1.26-2.96-1.26-.84,0-1.61.18-2.3.55-.69.37-1.32.86-1.89,1.46s-1.07,1.27-1.52,1.99v14.88h-4.92ZM922.06,192v-13.87c0-1.66-.27-2.91-.82-3.75-.54-.84-1.52-1.26-2.93-1.26-.84,0-1.61.18-2.31.54-.7.36-1.33.84-1.9,1.45-.57.61-1.08,1.28-1.54,2.01l-.71-4.07h.48c.54-.72,1.18-1.43,1.92-2.12.74-.69,1.61-1.26,2.61-1.7,1-.45,2.12-.67,3.38-.67,2.35,0,4.06.71,5.13,2.12,1.07,1.41,1.61,3.42,1.61,6.03v15.29h-4.92Z"/>
      <path class="st11" d="M933.56,200.99v-31.86l4.42-.28.14,3.04h.46c.44-.64,1.01-1.22,1.7-1.73.69-.51,1.48-.9,2.36-1.18.88-.28,1.84-.42,2.89-.42,2.07,0,3.82.52,5.26,1.56s2.52,2.47,3.27,4.28,1.12,3.84,1.12,6.09c0,2.13-.35,4.11-1.05,5.95-.7,1.83-1.75,3.31-3.16,4.43s-3.19,1.68-5.34,1.68c-1,0-1.91-.13-2.72-.39-.82-.26-1.56-.64-2.23-1.13s-1.27-1.08-1.81-1.77h-.37v11.57l-4.92.16ZM943.93,188.25c1.43,0,2.6-.36,3.52-1.09.92-.73,1.59-1.68,2.02-2.85.43-1.17.64-2.43.64-3.76s-.23-2.67-.68-3.83c-.45-1.16-1.14-2.08-2.06-2.77-.92-.69-2.09-1.04-3.52-1.04-.71,0-1.39.1-2.06.31-.67.21-1.28.51-1.85.92-.57.41-1.06.92-1.47,1.53v9.29c.4.67.86,1.26,1.38,1.75.52.49,1.12.87,1.79,1.14.67.27,1.43.4,2.28.4Z"/>
      <path class="st11" d="M966.22,192.48c-1.3,0-2.47-.26-3.5-.79s-1.84-1.3-2.43-2.3c-.59-1-.89-2.23-.89-3.67,0-1.27.22-2.34.66-3.21s1.02-1.58,1.74-2.13,1.53-.98,2.42-1.29c.89-.31,1.79-.53,2.69-.67l6.78-1.06c.06-1.27-.13-2.25-.56-2.92-.44-.67-1.05-1.13-1.84-1.38-.79-.25-1.68-.37-2.68-.37-.52,0-1.09.04-1.69.12-.61.08-1.24.2-1.91.38-.67.18-1.37.39-2.09.64s-1.48.56-2.24.91l-.28-4.37c.57-.23,1.2-.45,1.91-.67s1.47-.41,2.29-.59c.82-.18,1.67-.31,2.54-.4.88-.09,1.76-.14,2.67-.14,1.81,0,3.36.27,4.65.8,1.29.54,2.28,1.39,2.97,2.56.69,1.17,1.04,2.7,1.04,4.57v15.48h-4.44l-.28-3.04h-.44c-.45.57-1,1.12-1.67,1.66s-1.46.98-2.37,1.33c-.91.35-1.93.53-3.05.53ZM967.83,188.57c.74,0,1.46-.17,2.17-.5.71-.33,1.38-.8,1.99-1.41s1.14-1.36,1.59-2.23v-4.05c-.23.14-.53.27-.89.39-.36.12-.9.26-1.62.41s-1.73.34-3.04.57c-.75.12-1.4.35-1.93.67-.54.32-.95.74-1.25,1.25s-.45,1.12-.45,1.83c0,1.12.34,1.91,1.02,2.37.68.46,1.48.69,2.4.69Z"/>
      <path class="st11" d="M995.31,192.46c-2.52,0-4.65-.52-6.41-1.55s-3.09-2.45-4.01-4.24-1.38-3.83-1.38-6.09.43-4.33,1.3-6.14c.87-1.81,2.15-3.23,3.84-4.28s3.78-1.56,6.25-1.56c.89,0,1.77.07,2.66.22.88.15,1.71.34,2.5.6s1.47.55,2.07.89l-.41,4.37c-.86-.49-1.66-.87-2.4-1.13-.74-.26-1.43-.44-2.06-.54-.63-.1-1.2-.15-1.72-.15-2.12,0-3.81.69-5.08,2.06-1.27,1.37-1.91,3.22-1.91,5.55,0,1.5.29,2.84.87,4.02.58,1.18,1.45,2.12,2.61,2.81,1.16.69,2.59,1.04,4.31,1.04.63,0,1.26-.06,1.89-.17.63-.12,1.25-.29,1.85-.53.61-.24,1.19-.54,1.76-.91l.35,4.39c-.52.25-1.12.47-1.79.68-.67.21-1.43.37-2.28.5-.84.12-1.77.18-2.78.18Z"/>
      <path class="st11" d="M1005.07,172.93v-3.79h16.61v3.79h-16.61ZM1016.66,192.55c-1.58,0-2.93-.26-4.04-.78-1.11-.52-1.96-1.33-2.53-2.44-.58-1.1-.86-2.53-.86-4.28v-23.34l4.85-.97v22.95c0,1.56.31,2.74.94,3.53.63.79,1.61,1.18,2.94,1.18.55,0,1.15-.1,1.78-.29.64-.19,1.22-.49,1.76-.88l.34,4.14c-.35.23-.8.43-1.35.61-.54.18-1.15.31-1.82.41s-1.35.15-2.04.15Z"/>
    </g>
    <g class="st9">
      <path class="st2" d="M1028.78,192.55c-.72,0-1.34-.15-1.86-.45-.52-.3-.92-.71-1.21-1.22-.28-.51-.42-1.11-.42-1.78,0-1.01.32-1.82.95-2.44s1.49-.92,2.56-.92c.72,0,1.34.14,1.86.43.52.28.92.68,1.2,1.18.28.51.41,1.09.41,1.75,0,1-.31,1.82-.92,2.47s-1.47.98-2.58.98Z"/>
    </g>
  </g>
  <g id="logo-yard-da">
    <path id="Path_1" class="st11" d="M246.46,165.18l-1.28-.95c-.67-1.15-1.01-6.84-1.01-17.08v-5.19c-.03-1.32.08-2.63.34-3.92.41-1.72,2.59-5.64,6.56-11.78,7.03-10.89,13.5-20.09,19.4-27.6v-1.83l-.57-.52h-8.18c-1.15,2.02-2.07,3.61-2.74,4.76l-6.22,10.41c-6.2,10.02-10.41,16.68-12.62,20l-7.35-13.71c-5.34-10.01-9.61-16.47-12.79-19.37-1.54-1.41-3.3-2.55-5.21-3.4-2.59.7-8.44,1.89-17.55,3.57l-.55.58v2.93l.61.58c1.41-.08,2.82.03,4.2.34,1.29.75,2.46,1.7,3.48,2.8,3.55,3.38,8.32,9.81,14.3,19.27,5.87,9.3,8.8,14.61,8.8,15.93v6.17c0,10.23-.34,15.91-1.01,17.07l-1.29.93c-2.28.39-4.58.62-6.89.69l-.55.52v3.57l.5.47c3.51-.21,9.26-.32,17.28-.32s13.57.11,17.28.32l.55-.54v-3.51l-.55-.52c-2.31-.06-4.61-.29-6.89-.67"/>
    <path id="Path_2" class="st11" d="M290.2,157.58c-1.93,3.12-5.36,4.98-9.02,4.92-4.44,0-6.66-2.37-6.66-7.12-.17-2.62,1.05-5.14,3.22-6.63,2.16-1.44,6.31-2.8,12.48-4.06v12.88h-.01ZM350.69,128.84l.4-9.31c-1.28-.45-2.63-.66-3.98-.63-2.28-.12-4.53.63-6.28,2.1-3.29,3.35-6.1,6.28-8.41,8.79l.12-10.26-1.24-.67c-6.91,2.19-14.03,3.64-21.24,4.33l-.55.58v2.94l.55.52c2.8.11,4.43.2,4.87.26.97.02,1.87.5,2.42,1.3.57,1.06.85,5.07.84,12.05v7.49c0,5.21-.13,10.08-.38,14.61-.08,1.36-.49,2.21-1.22,2.51-2.17.6-4.42.87-6.68.78l-.05.05c-1.56.06-3.11-.16-4.59-.66-.84-.66-1.33-1.68-1.32-2.76-.18-1.46-.29-4.81-.29-10.08,0-1.64.1-4.9.29-9.79.11-2.94.17-5.07.17-6.39,0-5.41-1.14-9.42-3.43-12.04-3.14-3.6-8.39-5.4-15.76-5.39-1.71-.03-3.41.09-5.1.37-3.11.55-7.74,2.96-13.9,7.23l-.28,6.17.38.74,2.86.63.74-.37,2.13-4.87c2.08-1.22,4.48-1.81,6.89-1.67,2.4-.06,4.76.54,6.85,1.73,3.14,1.89,4.71,5.6,4.72,11.15-12.1,1.99-20.15,4.23-24.17,6.71-3.71,2.27-5.54,6.13-5.54,11.58-.21,3.54.99,7.02,3.34,9.67,2.55,2.47,6.02,3.75,9.56,3.52.75,0,1.49-.03,2.24-.11,1.31-.05,2.58-.43,3.71-1.1l10.88-7.75-.5,7.01.5.58c2.91-.17,5.96-.26,9.14-.26,3.89,0,7.36.08,10.41.25l.14.12c3.52-.25,8.63-.37,15.31-.37,5.42,0,10.88.11,16.37.32l.55-.54v-3.2l-.55-.47c-4.49-.14-7.09-.4-7.79-.78-.81-.57-1.26-1.52-1.19-2.51-.26-4.53-.4-8.09-.4-10.63v-12.25c-.14-2.04.45-4.07,1.68-5.71,1.72-2.04,4.28-3.2,6.95-3.14,2.88-.11,5.62,1.23,7.29,3.57l2.36-.67c.11-1.96.18-3.69.23-5.24"/>
    <path id="Path_3" class="st11" d="M389.44,142.62c0,7.64-.06,11.71-.17,12.2-.61,1.9-1.91,3.51-3.65,4.5-2.16,1.53-4.75,2.36-7.4,2.36-2.83.14-5.6-.86-7.69-2.77-3.61-3.49-5.43-8.85-5.44-16.08-.04-3.12.37-6.22,1.22-9.22,1.02-4.6,5.27-7.76,9.97-7.43,1.83,0,3.65.28,5.39.84,3.02,1.24,5.69,3.22,7.74,5.76v9.85h.01ZM411.03,166.59c-1.88-.07-3.76-.3-5.6-.67-.55-.17-1.01-.57-1.24-1.1-.49-.98-.74-6.37-.74-16.17v-16.91c0-15.04.17-26.31.51-33.83.15-3.32.23-5.04.23-5.18l-1.24-.63c-7.07,2.16-14.34,3.62-21.7,4.35l-.57.58v2.88l.57.58c2.83.11,4.56.21,5.16.32,1.04.03,1.95.69,2.3,1.67.49,1.64.74,7.06.74,16.23v2.94c-3.42-1.54-7.12-2.33-10.87-2.31-2.32-.07-4.64.28-6.83,1.04-3.44,1.59-6.73,3.51-9.82,5.71-2.52,1.51-4.86,3.32-6.95,5.39-3.03,3.87-4.55,9.29-4.55,16.23s1.96,12.98,5.88,17.49c3.87,4.47,9.56,6.95,15.47,6.75,1.97.11,3.95-.15,5.82-.78,2.14-1.45,4.17-3.06,6.06-4.82,2.51-2.16,4.43-3.77,5.77-4.81,0,4.01-.08,6.88-.23,8.59l.51.37c4.79-.25,8.58-.37,11.38-.37,2.96,0,6.26.12,9.92.37l.57-.52v-2.83l-.54-.54v-.03Z"/>
    <path id="Path_4" class="st11" d="M250.47,194.75c.11-1.44-.4-2.85-1.39-3.89-1.14-.95-2.6-1.41-4.07-1.3h-2.34v10.55h2.11c3.8,0,5.71-1.79,5.7-5.36M251.44,194.7c.12,1.7-.49,3.37-1.69,4.58-1.39,1.12-3.15,1.68-4.93,1.55h-3.05v-12.04h3.45c1.68-.12,3.35.42,4.64,1.5,1.12,1.18,1.7,2.78,1.59,4.4"/>
    <path id="Path_5" class="st11" d="M257.5,200.84h-.86v-8.96h.86v8.96ZM256.52,189.4c0-.54.18-.78.55-.78.17,0,.32.07.43.2.11.17.16.38.15.58,0,.2-.05.41-.15.58-.1.14-.26.22-.43.21-.37,0-.55-.26-.55-.8"/>
    <path id="Path_6" class="st11" d="M263.61,194.69c-.03.61.21,1.2.66,1.61,1.08.77,2.52.77,3.6,0,.44-.43.67-1.04.63-1.65.05-.64-.19-1.27-.64-1.71-.51-.41-1.16-.61-1.82-.57-.65-.04-1.29.18-1.78.61-.45.45-.69,1.08-.64,1.71M262.9,202.36c0,1.23.96,1.84,2.89,1.84,2.48,0,3.72-.75,3.72-2.25.04-.47-.19-.91-.58-1.16-.59-.29-1.25-.42-1.9-.37h-1.55c-1.73,0-2.6.64-2.6,1.93M270.55,191.89v.57l-1.96.11c.5.55.78,1.27.78,2.02.03.8-.3,1.57-.9,2.1-.69.56-1.56.85-2.45.8-.3,0-.6,0-.9-.05-.3.14-.57.34-.78.6-.17.21-.27.47-.28.74-.01.26.12.5.34.63.36.16.76.22,1.15.2h1.65c.83-.05,1.65.15,2.36.58.55.41.86,1.06.83,1.75.02.9-.44,1.73-1.21,2.19-1.06.57-2.26.84-3.46.77-.97.06-1.93-.17-2.77-.64-.63-.38-1-1.07-.98-1.81,0-.57.22-1.12.61-1.53.45-.43,1.02-.72,1.64-.83-.26-.11-.49-.28-.67-.49-.17-.21-.26-.47-.26-.74,0-.6.4-1.12,1.21-1.58-.52-.2-.97-.55-1.29-1.01-.75-1.19-.57-2.74.44-3.72.68-.57,1.55-.86,2.44-.81.49-.01.97.04,1.44.17h3.03,0Z"/>
    <path id="Path_7" class="st11" d="M275.85,200.84h-.86v-8.96h.86v8.96ZM274.87,189.4c0-.54.18-.78.55-.78.16,0,.31.07.41.2.11.17.16.38.15.58,0,.2-.05.41-.15.58-.09.14-.25.22-.41.21-.37,0-.55-.26-.55-.8"/>
    <path id="Path_8" class="st11" d="M284.01,200.29c.48,0,.96-.04,1.42-.14v.66c-.47.14-.95.21-1.44.2-.68.06-1.35-.17-1.85-.63-.45-.56-.66-1.28-.6-1.99v-5.78h-1.41v-.47l1.41-.37.44-2.02h.45v2.16h2.79v.7h-2.79v5.67c-.05.53.09,1.07.38,1.52.3.35.75.54,1.21.49"/>
    <path id="Path_9" class="st11" d="M292.25,200.26c.87.05,1.73-.24,2.39-.81.61-.6.93-1.43.87-2.28v-.87l-1.65.06c-.98-.01-1.95.18-2.85.58-.56.31-.88.91-.84,1.55-.03.49.17.97.54,1.3.44.33.98.49,1.53.46M295.73,200.84l-.21-1.42h-.06c-.4.51-.9.93-1.47,1.22-.56.24-1.17.37-1.78.37-.78.04-1.55-.2-2.17-.67-.52-.48-.81-1.16-.78-1.87-.02-.84.42-1.62,1.15-2.04,1.02-.55,2.18-.81,3.34-.77l1.81-.05v-.6c.05-.69-.14-1.37-.55-1.93-.46-.47-1.11-.71-1.76-.66-.95.02-1.88.26-2.73.69l-.32-.7c.96-.45,2.01-.68,3.08-.69,1.49-.22,2.88.81,3.1,2.3.04.28.04.57,0,.86v5.95h-.63,0Z"/>
    <rect id="Rectangle_7" class="st11" x="301.93" y="188.03" width=".86" height="12.82"/>
    <path id="Path_10" class="st11" d="M317.09,195.84h4.56l-1.73-4.35c-.15-.34-.32-.81-.52-1.41-.13.49-.31.96-.52,1.42l-1.79,4.33ZM321.95,196.6h-5.18l-1.78,4.24h-.98l5.12-12.08h.57l5.01,12.08h-1l-1.75-4.24Z"/>
    <path id="Path_11" class="st11" d="M329.24,194.69c-.03.61.21,1.2.66,1.61,1.08.77,2.52.77,3.6,0,.44-.43.67-1.04.63-1.65.05-.64-.19-1.27-.64-1.71-.51-.41-1.16-.61-1.82-.57-.65-.04-1.29.18-1.78.61-.45.45-.69,1.08-.64,1.71M328.52,202.36c0,1.23.96,1.84,2.89,1.84,2.48,0,3.72-.75,3.72-2.25.04-.47-.19-.91-.58-1.16-.59-.29-1.25-.42-1.9-.37h-1.54c-1.73,0-2.6.64-2.6,1.93M336.18,191.89v.57l-1.96.11c.5.55.78,1.27.78,2.02.03.8-.31,1.58-.92,2.1-.68.56-1.55.85-2.43.8-.3,0-.6,0-.9-.05-.3.14-.57.34-.78.6-.17.21-.26.47-.26.74-.01.26.12.5.34.63.36.16.76.22,1.15.2h1.65c.83-.06,1.65.15,2.36.58.55.41.86,1.06.83,1.75.03.9-.44,1.74-1.21,2.19-1.06.57-2.26.84-3.46.77-.97.06-1.93-.17-2.77-.64-.63-.38-1-1.07-.98-1.81,0-.57.22-1.12.61-1.53.45-.43,1.02-.72,1.64-.83-.26-.11-.5-.28-.69-.49-.17-.21-.26-.47-.26-.74,0-.6.4-1.12,1.21-1.58-.52-.2-.97-.55-1.29-1.01-.75-1.19-.57-2.74.44-3.72.68-.57,1.55-.86,2.43-.81.49-.01.98.04,1.46.17h3.03-.02Z"/>
    <path id="Path_12" class="st11" d="M344.18,192.45c-.82-.03-1.61.28-2.19.86-.6.68-.94,1.55-.96,2.45h5.85c.05-.87-.2-1.73-.72-2.43-.48-.59-1.22-.91-1.98-.87M344.44,201c-1.19.07-2.36-.36-3.22-1.19-.81-.93-1.22-2.14-1.15-3.37-.06-1.24.34-2.46,1.12-3.43.75-.87,1.85-1.35,3-1.29,1-.05,1.97.35,2.63,1.1.69.84,1.03,1.91.96,3v.66h-6.81c-.06,1.02.26,2.02.9,2.82.67.67,1.61,1.03,2.56.96.48,0,.95-.03,1.42-.11.53-.11,1.06-.26,1.56-.46v.74c-.48.2-.98.35-1.49.44-.5.08-1,.12-1.5.12"/>
    <path id="Path_13" class="st11" d="M359.51,200.84v-5.81c.06-.71-.15-1.41-.6-1.96-.51-.45-1.19-.67-1.87-.61-.9-.08-1.8.21-2.48.81-.6.74-.88,1.69-.78,2.63v4.95h-.86v-8.94h.74l.17,1.22h.05c.77-1.01,2.03-1.54,3.29-1.39,1.56-.22,2.99.87,3.21,2.42,0,.01,0,.03,0,.04.03.27.03.54,0,.81v5.85h-.84l-.03-.03Z"/>
    <path id="Path_14" class="st11" d="M369.7,201.01c-1.18.07-2.33-.37-3.17-1.21-.81-.93-1.22-2.14-1.15-3.37-.08-1.27.35-2.51,1.19-3.46.87-.85,2.05-1.3,3.26-1.24.8,0,1.6.14,2.36.4l-.23.72c-.69-.23-1.4-.36-2.13-.38-.98-.07-1.95.3-2.63,1.01-.64.83-.96,1.87-.9,2.93-.06,1.02.26,2.03.9,2.83.64.7,1.56,1.08,2.51,1.03.82,0,1.63-.15,2.39-.44v.77c-.75.31-1.56.45-2.37.41"/>
    <path id="Path_15" class="st11" d="M375.3,191.9h.89l2.01,5.02c.61,1.55,1,2.59,1.16,3.12h.05c.25-.7.64-1.76,1.19-3.17l2.01-4.98h.89l-4.24,10.4c-.22.6-.51,1.18-.86,1.71-.22.28-.49.51-.81.66-.36.15-.74.23-1.13.23-.37,0-.74-.06-1.1-.17v-.7c.36.09.72.14,1.09.14.27,0,.54-.06.78-.2.25-.16.46-.37.61-.61.26-.42.48-.86.64-1.32.25-.6.4-1,.46-1.18l-3.62-8.97h-.01Z"/>
  </g>
  <path id="Path_2629" class="st1" d="M511.57,40v217"/>
  <g id="Group_10397">
    <g class="st14">
      <g id="Group_10396">
        <path id="Path_2616" class="st4" d="M0,1v98.34l96.95.11S5.96,100.77,0,1"/>
      </g>
    </g>
  </g>
  <g id="Group_10405">
    <path id="Rectangle_1642" class="st12" d="M1372,113h194c19.88,0,36,16.12,36,36h0c0,19.88-16.12,36-36,36h-194c-19.88,0-36-16.12-36-36h0c0-19.88,16.12-36,36-36Z"/>
    <g id="Group_10218">
      <g id="Group_10217">
        <g id="Path_1630">
          <path class="st0" d="M1564,129c11.05,0,20,8.95,20,20s-8.95,20-20,20-20-8.95-20-20,8.95-20,20-20Z"/>
          <path class="st2" d="M1564,130c-2.57,0-5.05.5-7.4,1.49-2.26.96-4.29,2.33-6.04,4.07-1.75,1.75-3.12,3.78-4.07,6.04-.99,2.34-1.49,4.83-1.49,7.4s.5,5.05,1.49,7.4c.96,2.26,2.33,4.29,4.07,6.04,1.75,1.75,3.78,3.12,6.04,4.07,2.34.99,4.83,1.49,7.4,1.49s5.05-.5,7.4-1.49c2.26-.96,4.29-2.33,6.04-4.07,1.75-1.75,3.12-3.78,4.07-6.04.99-2.34,1.49-4.83,1.49-7.4s-.5-5.05-1.49-7.4c-.96-2.26-2.33-4.29-4.07-6.04-1.75-1.75-3.78-3.12-6.04-4.07-2.34-.99-4.83-1.49-7.4-1.49M1564,129c11.05,0,20,8.95,20,20s-8.95,20-20,20-20-8.95-20-20,8.95-20,20-20Z"/>
        </g>
        <path id="arrow-right-light" class="st11" d="M1571.49,149.39c.21-.22.21-.56,0-.78l-6.07-6.07c-.22-.21-.57-.19-.78.03-.19.21-.19.54,0,.75l5.13,5.13h-13.03c-.3-.03-.57.2-.6.5-.03.3.2.57.5.6.03,0,.06,0,.09,0h13.02l-5.13,5.14c-.22.21-.24.56-.03.78.21.22.56.24.78.03.01-.01.02-.02.03-.03l6.08-6.07Z"/>
      </g>
      <g id="Work_with_us" class="st9">
        <g class="st9">
          <path class="st11" d="M1372.04,157c-.26-.92-.54-1.9-.84-2.95s-.58-2.02-.84-2.91l-1.66-5.8c-.29-1.03-.62-2.16-.98-3.4s-.69-2.39-1-3.48h2.6c.37,1.33.74,2.72,1.13,4.19.39,1.46.76,2.86,1.12,4.19l1.99,7.38h.22l1.94-7.47c.22-.86.46-1.76.71-2.71.25-.95.49-1.9.74-2.85.25-.95.48-1.86.71-2.72h2.73c.35,1.33.71,2.71,1.09,4.14.38,1.43.75,2.82,1.1,4.17l1.98,7.45h.22l2.01-7.49c.35-1.29.71-2.67,1.11-4.13.39-1.46.76-2.84,1.1-4.13h2.61c-.32,1.1-.66,2.26-1.01,3.47-.35,1.21-.68,2.33-.98,3.35l-1.69,5.85c-.27.93-.55,1.91-.85,2.96-.3,1.04-.58,2.01-.85,2.91h-3.02c-.35-1.27-.71-2.62-1.1-4.03-.38-1.41-.75-2.74-1.08-3.98l-1.98-7.23h-.23l-1.94,7.23c-.33,1.25-.68,2.58-1.07,4s-.74,2.76-1.08,4h-2.91Z"/>
          <path class="st11" d="M1398.51,157.29c-1.07,0-2-.18-2.81-.55-.81-.37-1.49-.87-2.03-1.5-.55-.63-.96-1.36-1.24-2.18-.28-.82-.42-1.68-.42-2.58,0-1.29.26-2.44.79-3.44s1.27-1.79,2.24-2.37c.97-.58,2.12-.87,3.45-.87,1.03,0,1.95.17,2.74.51s1.47.81,2.03,1.42.98,1.32,1.26,2.13c.29.81.43,1.69.43,2.63,0,1.27-.26,2.43-.78,3.46-.52,1.03-1.26,1.85-2.22,2.45-.96.6-2.1.9-3.42.9ZM1398.51,155.41c.94,0,1.73-.23,2.35-.7.62-.47,1.09-1.08,1.4-1.83s.47-1.56.47-2.41c0-.97-.17-1.82-.52-2.53-.35-.72-.84-1.28-1.47-1.68-.63-.4-1.38-.6-2.25-.6-.94,0-1.72.21-2.37.64-.64.42-1.12,1-1.45,1.73-.32.73-.49,1.54-.49,2.44,0,.85.16,1.65.47,2.41.32.75.79,1.37,1.44,1.83.64.47,1.44.7,2.41.7Z"/>
          <path class="st11" d="M1408.47,157v-12.9l1.87-.13.07,2.63h.22c.35-.79.76-1.38,1.23-1.79.46-.4.93-.67,1.41-.81s.91-.21,1.31-.21c.24,0,.49.02.73.05.24.04.47.09.69.17l-.2,2.16c-.29-.05-.54-.09-.77-.13-.23-.03-.5-.05-.8-.05-.25,0-.54.04-.85.11s-.64.23-.98.46c-.33.23-.66.57-.97,1.03-.31.46-.58,1.06-.82,1.81v7.61h-2.14Z"/>
          <path class="st11" d="M1418.86,157v-19.03l2.14-.26v19.29h-2.14ZM1427.41,157c-.58-.59-1.17-1.18-1.76-1.77-.59-.59-1.18-1.17-1.76-1.76l-2.22-2.22h-.91v-1.53h1.04l1.87-1.99c.57-.6,1.15-1.2,1.73-1.81.58-.61,1.15-1.22,1.72-1.81h2.65c-.75.75-1.49,1.51-2.22,2.26-.74.75-1.47,1.51-2.2,2.26l-2.2,2.24-.08-1.04,2.55,2.63c.77.76,1.54,1.52,2.31,2.28.77.76,1.53,1.51,2.28,2.27h-2.79Z"/>
          <path class="st11" d="M1440.55,157c-.26-.81-.52-1.63-.79-2.44s-.54-1.64-.82-2.48l-.74-2.29c-.31-.95-.62-1.9-.93-2.84-.31-.94-.62-1.89-.93-2.85l2.26-.09c.32,1.06.66,2.17,1.01,3.33s.69,2.29,1.01,3.36l1.2,3.99h.21l1.17-4.08c.31-1.08.62-2.17.94-3.24.31-1.08.63-2.17.95-3.27h2.08c.31,1.05.63,2.12.95,3.22.32,1.1.64,2.18.95,3.24l1.21,4.13h.21l1.22-4.19c.3-1.05.62-2.14.96-3.28s.64-2.18.92-3.13h2.29c-.3.95-.61,1.89-.92,2.85s-.61,1.9-.92,2.85l-.73,2.26c-.28.84-.55,1.68-.82,2.5-.27.83-.53,1.64-.79,2.44h-2.54c-.3-1-.62-2.03-.94-3.1s-.63-2.09-.94-3.05l-1.13-3.76h-.22l-1.12,3.8c-.29.96-.58,1.97-.9,3.03-.31,1.06-.62,2.08-.92,3.08h-2.43Z"/>
          <path class="st11" d="M1459.81,141.13c-.47,0-.85-.13-1.14-.39-.29-.26-.44-.66-.44-1.2s.15-.92.44-1.19c.29-.26.68-.4,1.17-.4s.86.14,1.14.41c.29.27.43.67.43,1.18,0,.54-.14.94-.43,1.2-.29.26-.68.39-1.17.39ZM1458.77,157v-12.9l2.16-.08v12.97h-2.16Z"/>
          <path class="st11" d="M1463.82,145.81v-1.7h9.12v1.7h-9.12ZM1470.31,157.29c-.86,0-1.59-.15-2.18-.45-.6-.3-1.05-.75-1.36-1.37-.31-.61-.46-1.39-.46-2.35v-13.21l2.12-.47v13.17c0,.93.2,1.62.59,2.09.39.47,1,.7,1.81.7.32,0,.67-.05,1.05-.16.38-.11.72-.28,1.01-.51l.18,1.88c-.17.13-.41.25-.7.34-.29.1-.62.18-.97.23-.36.06-.72.08-1.09.08Z"/>
          <path class="st11" d="M1476.08,157v-19.03l2.14-.26v8.54h.23c.26-.36.6-.74,1.01-1.12.41-.38.9-.7,1.47-.96.57-.26,1.22-.38,1.94-.38,1.37,0,2.37.39,3,1.18.63.79.95,1.93.95,3.43v8.59h-2.15v-8.05c0-1.03-.18-1.81-.55-2.34-.37-.53-1.03-.79-2-.79-.58,0-1.11.12-1.59.35s-.91.55-1.29.94-.73.83-1.03,1.31v8.58h-2.14Z"/>
          <path class="st11" d="M1499.59,157.29c-1.37,0-2.37-.39-3-1.18-.63-.79-.95-1.93-.95-3.43v-8.57l2.14-.09v8.15c0,1.02.19,1.8.56,2.33.37.53,1.04.8,1.99.8.55,0,1.06-.12,1.52-.36.46-.24.88-.55,1.26-.94.38-.39.73-.82,1.04-1.3v-8.59h2.15v12.9h-1.87l-.08-2.28h-.23c-.27.39-.62.78-1.05,1.18s-.93.72-1.51.99c-.58.26-1.23.4-1.96.4Z"/>
          <path class="st11" d="M1514.12,157.29c-.54,0-1.08-.04-1.62-.13-.54-.09-1.05-.2-1.53-.34s-.89-.31-1.25-.49l.17-2.02c.4.23.83.42,1.28.59s.93.3,1.42.39c.49.09.98.14,1.48.14s.92-.05,1.32-.16c.4-.11.72-.31.96-.6.24-.29.36-.71.36-1.27,0-.36-.1-.66-.31-.9s-.56-.45-1.05-.64c-.49-.19-1.15-.4-1.98-.64-.68-.19-1.29-.42-1.83-.7-.54-.28-.96-.65-1.27-1.12-.31-.47-.46-1.08-.46-1.83,0-1.17.38-2.09,1.15-2.76s1.8-1.01,3.1-1.01c.54,0,1.06.05,1.56.14.5.09.97.21,1.39.36.42.15.79.3,1.11.47l-.18,2.02c-.42-.26-.84-.47-1.29-.64s-.87-.29-1.27-.36c-.41-.07-.77-.11-1.08-.11-.36,0-.71.05-1.06.15-.35.1-.64.28-.88.55-.23.26-.35.64-.35,1.14,0,.36.08.65.25.9.16.24.45.46.86.65s.97.39,1.69.6c.86.25,1.59.51,2.2.79.61.27,1.08.63,1.41,1.07.33.44.49,1.05.49,1.83s-.17,1.43-.49,2.02c-.33.59-.85,1.06-1.55,1.41-.7.35-1.62.52-2.74.52Z"/>
        </g>
      </g>
    </g>
  </g>
  <g class="st10">
    <g id="Group_10395">
      <path id="Path_2550" class="st6" d="M-298.91.09c39.78,0,75.69,23.8,91.18,60.44l1.76,4.49c3.99,10.9,6.02,22.42,6.01,34.02V.09h-98.95Z"/>
      <path id="Path_2551" class="st13" d="M90.94,64.99l-1.77-4.49C73.68,23.84,37.74.02-2.06.03h-98.91V0h-99.01v.11C-146.35.11-102,43.72-101.1,97.32v1.72h.11v-.03h.02v-1.66C-100.07,43.76-55.73.15-2.12.14c-.01,52.73,41.33,96.2,93.99,98.83H-2.12v.06h0c-.06,54.59-44.3,98.83-98.9,98.89v.11H-2c54.63.02,98.94-44.26,98.95-98.9v-.1c.02-11.61-2.02-23.14-6.01-34.04h0Z"/>
      <path id="Path_2552" class="st13" d="M-207.67,60.5h0C-223.17,23.85-259.11.03-298.91.03h-.06v.06c-.05,54.63,44.21,98.96,98.84,99.01.06,0,.11,0,.17,0h.06v-.06c.02-11.61-2.02-23.14-6.01-34.04l-1.77-4.49Z"/>
      <path id="Path_2553" class="st5" d="M-2.12,197.92h0c-53.25-.02-96.97,42.11-98.91,95.33-1.87-51.37-42.79-92.75-94.13-95.2h94.21c54.63,0,98.93-44.28,98.95-98.91,0-.04,0-.07,0-.11v-.06h-.03V.03h-.06C-55.38-.02-99.12,42.15-101.04,95.39-102.94,42.14-146.69-.04-199.98,0h-.06v98.97h-1.34c-53.75-.76-97.47-45.12-97.47-98.88h-.11v98.88h-.05v.06c-.05,52.84,41.44,96.4,94.23,98.9h-94.23v.06c-.05,54.63,44.2,98.96,98.84,99.01.05,0,.09,0,.14,0h0s198,.01,198,.01h0c54.63.02,98.95-44.24,98.98-98.88,0-.05,0-.1,0-.14v-.06H-2.12Z"/>
      <path id="Path_2554" class="st8" d="M96.89,99.04h0C42.24,99.04-2.06,54.74-2.06.09h0s0,98.95,0,98.95h98.95c0,54.65-44.31,98.94-98.95,98.94h98.95v-98.94h0"/>
      <path id="Path_2555" class="st7" d="M89.12,60.52l1.77,4.49c3.99,10.9,6.02,22.42,6.01,34.02V.09H-2.06c39.78,0,75.69,23.8,91.18,60.44"/>
      <path id="Path_2556" class="st8" d="M-101.04,197.99h-98.93c53.86,0,97.83,43.07,98.93,96.92v2.03c0-.48,0-.96.01-1.44,0,.48.01.96.01,1.44v-2.03c1.1-53.85,45.07-96.92,98.93-96.92h-98.95Z"/>
      <path id="Path_2557" class="st8" d="M-298.95,197.98v98.95h98.95c-54.65,0-98.95-44.3-98.95-98.95h0"/>
      <path id="Path_2558" class="st8" d="M-298.95,99.03v98.95h98.95c-54.65,0-98.95-44.3-98.95-98.95h0"/>
      <path id="Path_2559" class="st8" d="M-2.06,296.93h98.95v-98.95c0,54.65-44.3,98.95-98.95,98.95h0"/>
      <path id="Path_2560" class="st8" d="M-150.51,99.03c0-27.32-22.15-49.48-49.48-49.48s-49.48,22.15-49.48,49.48,22.15,49.48,49.48,49.48,49.48-22.15,49.48-49.48h0"/>
    </g>
  </g>
</svg>